<?xml version="1.0" encoding="UTF-8"?>
<svg version="1.1" viewBox="0 0 1600 1600" width="1280" height="1280" xmlns="http://www.w3.org/2000/svg">
<path transform="translate(821 731)" d="m0 0c2.17-0.00218 4.35-0.0203 6.52-0.0393 1.39-0.00294 2.77-0.00492 4.16-0.00586 1.26-0.00411 2.52-0.00822 3.82-0.0125 3.31 0.238 5.36 0.985 8.38 2.24 2.19 0.277 4.39 0.469 6.59 0.598 1.26 0.0793 2.52 0.159 3.82 0.24 1.31 0.0741 2.62 0.148 3.97 0.225 2.59 0.155 5.18 0.313 7.77 0.473 1.72 0.0987 1.72 0.0987 3.47 0.199 5.79 0.455 10.9 1.39 16.4 3.27 2.34 0.597 4.68 1.15 7.03 1.7 8.74 2.06 16.8 4.61 25 8.3 14.5 5.82 14.5 5.82 29.6 9.38 2.85 0.755 4.89 2.03 7.36 3.62 9.5 5.84 19 10.7 29.4 14.8 17.3 6.8 17.3 6.8 24.8 11.6 3.41 1.93 6.96 3.23 10.6 4.54 5.6 2.05 10.9 4.25 16.2 7.06 2.02 1 4.04 2 6.06 3 7.16 3.53 13.6 7.29 19.9 12.2 0.61 0.481 1.22 0.962 1.85 1.46 4.13 3.3 7.89 6.82 11.5 10.7 2.31 2.27 4.95 3.89 7.67 5.64 1.69 1.65 3.36 3.31 5 5 0.99 0.66 1.98 1.32 3 2v2c0.531 0.206 1.06 0.413 1.61 0.625 3.4 1.95 5.9 4.6 8.64 7.38 0.831 0.82 0.831 0.82 1.68 1.66 4.07 4.09 4.07 4.09 4.07 6.34 0.541 0.244 1.08 0.487 1.64 0.738 13.3 7.09 25.4 18.3 32.2 31.7 2.64 5.06 5.91 8.82 9.81 12.9 3.28 3.72 5.91 7.79 8.59 12 1.64 2.61 1.64 2.61 3.33 4.75 1.46 1.99 2.42 3.9 3.4 6.16 0.518 1.19 0.518 1.19 1.05 2.4 0.835 2.06 1.52 4.11 2.2 6.23 1.72 4.79 4.86 8.51 7.89 12.5 5.03 6.99 7.02 15.9 9.64 24 1.54 4.71 3.3 9.29 5.17 13.9 1.57 4.06 2.89 8.19 4.21 12.3 0.614 2.3 0.614 2.3 1.83 3.37 0.539 2.64 1.04 5.28 1.5 7.94 0.765 5.18 0.765 5.18 2.5 10.1 0.309 2.3 0.509 4.6 0.719 6.91 0.173 2.15 0.173 2.15 1.28 4.09 0.04 2 0.0435 4 0 6-4.42 0.421-6.56-0.142-10.1-2.79-3.48-2.21-7.38-3.56-11.2-5.07-2.71-1.15-2.71-1.15-5.71-3.15-10.7-3.03-21.3-3.49-32.3-3.38-1.15 0.00499-1.15 0.00499-2.32 0.0101-11.4 0.0579-22.3 0.721-33.4 3.36-0.825 0.178-1.65 0.356-2.5 0.539-1.37 0.296-2.73 0.604-4.09 0.926-3.52 0.781-7.06 1.44-10.6 2.1-0.678 0.127-1.36 0.254-2.06 0.385-1.92 0.356-3.84 0.705-5.76 1.05-0.932 0.183-1.86 0.366-2.82 0.555-2.71 0.38-5.3 0.574-8.03 0.699-15.5 0.768-29.3 4.27-44.1 8.82-6.61 1.98-13.3 3.47-20.1 4.92-1.53 0.34-3.05 0.68-4.58 1.02-8.7 1.91-17.4 3.56-26.2 4.85-4.89 0.726-9.74 1.6-14.6 2.54-9.12 1.74-18.3 3.11-27.5 4.46-1.74 0.258-3.48 0.516-5.22 0.774-3.55 0.526-7.1 1.05-10.7 1.57-4.26 0.629-8.52 1.27-12.8 1.91-3.13 0.472-6.25 0.94-9.38 1.41-1.46 0.22-2.93 0.441-4.39 0.663-2.03 0.308-4.05 0.61-6.08 0.911-1.14 0.171-2.28 0.343-3.45 0.519-3.17 0.364-3.17 0.364-6.32 0.33-2.78 0.0334-4.48 0.436-7.04 1.46-5.23 1.86-10.3 2.31-15.8 2.7-1.37 0.11-1.37 0.11-2.77 0.223-1.92 0.15-3.85 0.29-5.77 0.419-2.28 0.153-4.55 0.316-6.82 0.488-13.8 0.948-27.5 0.909-41.3 0.913-1.99 0.0024-3.98 0.00481-5.97 0.00746-6.24 0.00808-12.5 0.0106-18.7 0.00987-6.38-6.01e-4 -12.8 0.00996-19.2 0.0257-5.54 0.0132-11.1 0.0184-16.6 0.0178-3.28-2.52e-4 -6.56 0.00338-9.85 0.0132-32.1 0.0869-32.1 0.0869-47.3-3.37-3.59-0.797-6.79-0.895-10.5-0.777-7.99 0.0539-15.6-1.2-23.5-2.54-2.78-0.461-5.55-0.916-8.33-1.37-1.29-0.213-2.58-0.426-3.91-0.645-2.89-0.449-5.76-0.829-8.66-1.13-7.07-0.767-13.4-2.58-19.6-5.93-7.43-3.43-15.1-3.65-23.1-4.12-9.99-0.633-19.4-1.66-29.1-4.38-2.53-0.555-5.07-1.02-7.62-1.5-4.18-0.806-8.17-1.69-12.2-3.06-6.71-2.13-13.7-2.53-20.7-3.19-2.51-0.248-5.03-0.524-7.54-0.809-0.835-0.0934-1.67-0.187-2.53-0.283-1.59-0.178-3.18-0.358-4.77-0.542-3.77-0.409-7.46-0.645-11.3-0.601-3.88 0.0433-7.54-0.401-11.4-1.01-1.29-0.107-2.58-0.214-3.91-0.324-10.5-0.87-20.3-2.79-29-9.06-1.07-1.62-1.07-1.62-1-3.89 0.202-0.878 0.405-1.76 0.613-2.66 0.319-1.48 0.319-1.48 0.645-2.99 0.22-1.01 0.441-2.03 0.668-3.07 0.301-1.87 0.593-3.75 0.875-5.62 1.88-11.2 4.19-22.1 8.84-32.5 1.36-3.07 2.55-6.18 3.72-9.32 2.54-6.67 5.52-13.1 8.56-19.6 0.857-1.89 1.71-3.79 2.56-5.69 0.809-1.77 1.62-3.54 2.44-5.31 0.582-1.26 0.582-1.26 1.18-2.55 2.56-5.36 5.57-10.1 9.06-14.9 1.85-2.71 3.37-5.49 4.89-8.4 2.17-4.11 4.38-7.06 7.88-10.2 3.13-3.64 5.49-7.43 7.81-11.6 2.94-5.24 6-10.3 9.27-15.4 1.48-2.31 2.93-4.64 4.37-6.98 0.432-0.703 0.864-1.41 1.31-2.13 0.843-1.37 1.68-2.75 2.51-4.13 3.77-6.11 8.03-11.6 13.7-16.1 3.77-3.18 6.58-6.7 9.42-10.7 1.79-2.09 3.2-2.7 5.64-3.92 1.72-1.61 3.38-3.29 5-5 14.3-15.1 29-27.2 47.7-36.4 0.837-0.414 1.67-0.828 2.54-1.25 0.917-0.452 1.83-0.905 2.78-1.37 2.21-1.1 4.42-2.21 6.62-3.31l19.8-9.89c0.604-0.303 1.21-0.606 1.83-0.918 1.7-0.848 3.41-1.68 5.11-2.52 2.62-1.23 2.62-1.23 4.52-2.86 3.11-2.2 6.55-3.25 10.1-4.5 2.94-1.07 5.24-2.16 7.88-3.88 4.03-2.35 8.28-3.38 12.8-4.48 3.58-0.88 7.04-1.85 10.5-3.12 12.9-4.59 25.6-5.68 39.2-6.49 7.91-0.491 15.2-1.27 22.7-4.03 5.56-1.62 5.56-1.62 8.07-2.35 1.92-0.483 1.92-0.483 2.93-1.65 4.06-0.699 8.16-1.1 12.2-1.56 1.21-0.137 2.42-0.274 3.67-0.416 9.46-1 18.7-1.25 28.2-1.03 6.2 0.0126 12.5-1.18 19-1.18zm-34.1 71.2c-3.03 3.03-3.16 6.14-3.25 10.3 0.0479 3.69 0.72 6.38 2.34 9.74 5.42 11.6 7.36 24.5 9.91 36.9-0.99-0.33-1.98-0.66-3-1-0.735-1.98-1.39-3.98-2-6-1.4-3.13-2.72-5.67-4.95-8.29-2.23-2.94-3.33-5.56-4.55-9.02-3.35-9.04-7.28-17.2-13.5-24.7h-2c-0.495-1.49-0.495-1.49-1-3-1.98-0.33-3.96-0.66-6-1-1.68 4.89-0.155 8.56 2 13 1.37 2.38 2.81 4.7 4.27 7.03 2.09 3.57 3.87 7.25 5.67 11 2.77 5.69 5.83 10.8 9.59 15.9 2.03 2.92 3.23 5.78 4.47 9.11 0.588 1.45 0.588 1.45 1.19 2.94 0.402 1.02 0.402 1.02 0.812 2.06-0.268-0.557-0.536-1.11-0.812-1.69-1.29-2.52-2.71-4.9-4.19-7.31-0.373-0.657-0.745-1.31-1.13-1.99-2.47-4.23-4.32-6.85-8.87-9.01-4.4-2.27-7.28-5.29-10.4-9.06-0.483-0.576-0.965-1.15-1.46-1.75-2.81-3.4-5.36-6.88-7.79-10.6-2.89-4.29-6.16-7.16-10.4-10.2-2.02-1.47-2.02-1.47-3.61-3.12-1.94-1.87-3.78-2-6.4-2.35-0.337 5.5 0.282 9.18 3 14 1.51 1.42 1.51 1.42 3.25 2.75 4.09 3.21 6.44 7.13 9.07 11.6 2.81 4.5 5.57 7.93 10.1 10.8 1.18 0.772 1.18 0.772 2.39 1.56 2.31 1.45 2.31 1.45 5.36 2.5 4.78 3.01 7.11 7.99 9.88 12.8-0.598-0.804-1.2-1.61-1.81-2.44-2-2.79-2-2.79-5.19-3.56-0.463-0.494-0.926-0.987-1.4-1.5-2.03-1.91-3.44-2.06-6.16-2.57-9.59-2.38-18-8.14-26.4-13.1-3.6-2.09-7.01-3.66-11-4.84v-2c-0.629-0.242-1.26-0.485-1.91-0.734-4.28-1.68-8.45-3.39-12.5-5.52-3.35-1.97-3.35-1.97-6.56-1.75 0.204 1.4 0.44 2.79 0.688 4.19 0.128 0.777 0.255 1.55 0.387 2.36 2.2 5.85 7.62 8.72 12.9 11.6 0.595 0.334 1.19 0.668 1.8 1.01 5.06 2.82 10.2 5.44 15.5 7.74 4.27 1.86 8.38 3.98 12.5 6.17 2.47 1.21 2.47 1.21 6.26 0.953 0.33 0.66 0.66 1.32 1 2 0.928 0.289 1.86 0.578 2.81 0.875 3.42 1.21 4.76 2.52 7.19 5.12-0.632-0.266-1.26-0.531-1.91-0.805-5.48-2.17-10.5-3.51-16.4-4.2-5.37-0.67-8.36-1.64-12.7-5-5.76-2.95-11.7-5.31-17.8-7.25-2.3-0.788-4.47-1.73-6.68-2.75-7.99-3.62-15.8-5.62-24.5-7 0.0701 2.95 0.368 5.18 2.2 7.56 5.12 4.79 11.3 7 17.8 9.44 1.73 0.684 3.46 1.37 5.19 2.06 1.22 0.481 1.22 0.481 2.46 0.973 2.26 0.926 4.46 1.93 6.66 2.96 4.84 2.2 9.87 3.67 15 5.17 2.72 0.832 2.72 0.832 4.72 1.83 2.34-0.282 4.68-0.613 7-1 0.33 0.66 0.66 1.32 1 2 2.05 0.835 2.05 0.835 4.44 1.5 4.35 1.28 4.35 1.28 6.56 3.5-6.56 0.252-6.56 0.252-8.73-0.98-3.35-1.5-6.72-1.36-10.3-1.46-6.62-0.253-13-0.964-19.5-2.12-8.9-1.54-17.4-1.81-26.4-1.44-0.73 0.0261-1.46 0.0522-2.21 0.0791-9.63 0.223-9.63 0.223-18.8 2.92-1.66 0.369-3.32 0.713-5 1-0.303 3.53-0.303 3.53 1.09 6.69 2.93 2.01 5.17 1.36 8.66 1 7.07-0.617 14.1-0.814 21.2-0.812 0.958-0.00427 1.92-0.00854 2.9-0.0129 14.9 0.0272 14.9 0.0272 19.2 2.14 1.52 0.0161 3.05-0.0344 4.57-0.121 0.896-0.0483 1.79-0.0967 2.71-0.146 1.41-0.0841 1.41-0.0841 2.84-0.17 0.945-0.0522 1.89-0.104 2.86-0.158 2.34-0.13 4.67-0.265 7.01-0.404v2c1.49 0.495 1.49 0.495 3 1-0.99 0.049-1.98 0.098-3 0.148-1.33 0.0751-2.67 0.151-4 0.227-1.3 0.0696-2.6 0.139-3.94 0.211-2.83 0.217-5.04 0.678-7.83 1.43-5.25 1.41-10.5 1.23-15.9 1.29-9.52 0.256-16.8 1.25-25.3 5.69-0.861 0.418-1.72 0.835-2.61 1.27-1.64 0.806-3.27 1.63-4.89 2.48-3.69 1.85-7.52 3.39-11.3 4.95-2.33 1.11-2.33 1.11-2.96 3.46-0.0632 0.61-0.126 1.22-0.191 1.85 10.3 3.25 21.1-1.01 30.5-5.08 6.63-2.7 12.9-3.55 19.9-4.2 4.99-0.473 9.37-1.43 14.1-3.05 6.06-1.66 13.4-2.6 19.4-0.668-2.21 0.65-4.42 1.29-6.62 1.94-1.84 0.539-1.84 0.539-3.73 1.09-3.65 0.973-3.65 0.973-7.05 1.48-0.859 0.164-1.72 0.327-2.6 0.496-0.33 0.66-0.66 1.32-1 2-0.99 0.454-1.98 0.908-3 1.38-0.99 0.536-1.98 1.07-3 1.62-0.165 0.66-0.33 1.32-0.5 2-0.5 2-0.5 2-2.75 3.69-4.48 1.57-8.51 1.77-13.2 1.91-8.8 1.02-15.8 5.04-23.3 9.53-1.84 1.09-3.68 2.18-5.52 3.26-0.802 0.478-1.6 0.957-2.43 1.45-2.1 1.1-3.92 1.71-6.24 2.17-0.495 1.98-0.495 1.98-1 4 2.78 2.33 2.78 2.33 5.69 1.62 0.763-0.206 1.53-0.413 2.31-0.625v2c5.57-1.32 10.8-3.33 15.9-5.94 10.5-5.3 20.5-7.39 32.1-9.06-6.83 3.47-13.7 6.57-20.9 9.09-6.85 2.42-12.7 4.87-18.1 9.91-1.3 1.21-1.3 1.21-2.62 2.44-0.784 0.846-1.57 1.69-2.38 2.56-0.793 0.855-0.793 0.855-1.6 1.73-3.69 4.1-3.69 4.1-5.4 9.27 3.52 2.35 4.86 2.58 9 2 2.09-1.84 2.09-1.84 3.41-3.38 6.16-6.29 14-10.6 21.9-14.3 2.76-1.28 2.76-1.28 5.32-2.94 2.29-1.32 3.89-1.84 6.46-2.26 4.13-0.921 5.48-2.65 7.94-6.12 3.99-2.89 8.14-3.96 12.9-5 4.15-0.925 8.04-1.88 11.9-3.64 3.64-1.54 5.45-1.36 9.21-0.355v3c-1.32 0.164-1.32 0.164-2.67 0.332-1.74 0.238-1.74 0.238-3.52 0.48-1.15 0.151-2.3 0.302-3.48 0.457-3.4 0.746-5.44 1.85-8.33 3.73-1.65 0.702-3.32 1.37-5 2-5.63 2.23-9.32 4.1-13.1 8.88-4.19 4.95-8.98 6.72-14.9 9.12-10.3 4.68-21.4 10.2-29 19-0.722 2.61-0.722 2.61-1 5 9.83 0.945 18.2-3.54 26.2-8.86 2.48-1.6 5.1-2.87 7.76-4.14-0.33 1.32-0.66 2.64-1 4-0.928 0.217-0.928 0.217-1.88 0.438-2.16 0.494-2.16 0.494-4.12 1.56v3c-0.681 0.165-1.36 0.33-2.06 0.5-4.37 2.23-6.87 5.75-9.94 9.5-0.825 0.887-1.65 1.77-2.5 2.69-1.8 2.25-1.8 2.25-1.25 5.12 0.247 0.722 0.495 1.44 0.75 2.19 10.5-0.811 17.7-8.12 25-15 5.34-4.67 5.34-4.67 8-6v-2c0.701-0.186 1.4-0.371 2.12-0.562 3.92-1.96 6.41-4.84 8.88-8.44v-2c0.66-0.227 1.32-0.454 2-0.688 6.35-2.78 11.2-6.35 16-11.3 2.56-1.94 2.56-1.94 5-3 2.25 0.625 2.25 0.625 4 2 0.33 0.99 0.66 1.98 1 3-0.877 0.251-1.75 0.503-2.66 0.762-3.47 1.29-5.89 2.83-8.84 5.05-0.95 0.713-1.9 1.43-2.88 2.16-5.43 4.19-5.43 4.19-10.4 8.89-3.45 3.33-7.36 6-11.2 8.82-3.01 2.24-3.01 2.24-5.54 4.91-2.43 2.4-2.43 2.4-4.96 3.84-4.17 2.65-6.42 6.84-9.19 10.9-2.39 2.84-3.84 3.56-7.28 4.71-0.887 2.04-0.887 2.04-1 4 3.02 1.51 5.67 1.18 9 1 0.99-0.66 1.98-1.32 3-2v-2c0.536-0.206 1.07-0.412 1.62-0.625 3.29-1.91 5.97-4.42 8.38-7.38v-2c1.21-0.402 1.21-0.402 2.44-0.812 0.846-0.392 1.69-0.784 2.56-1.19 0.33-0.99 0.66-1.98 1-3 1.75-1 1.75-1 4-2 1.67-0.987 3.34-1.99 5-3 8.2-5 8.2-5 11-5 0.825-0.99 1.65-1.98 2.5-3 0.825-0.99 1.65-1.98 2.5-3h2c-1.36 0.99-1.36 0.99-2.75 2-2.56 2.11-3.83 3.9-5.12 6.94-2.22 4.92-5.78 7.09-10.1 10.1-1.29 0.999-2.56 2.02-3.81 3.06-0.814 0.667-0.814 0.667-1.64 1.35-1.94 2-3.14 4.18-4.54 6.59-2.14 3.06-4.29 6.12-6.45 9.16-1.8 2.65-1.8 2.65-1.28 5.21 0.242 0.538 0.485 1.08 0.734 1.63 1.46-0.0601 2.92-0.149 4.38-0.25 0.812-0.0464 1.62-0.0928 2.46-0.141 2.34-0.39 2.34-0.39 3.33-2.59 0.412-1 0.412-1 0.832-2.02 1.94-1.06 1.94-1.06 4-2 1.02-0.979 2.02-1.98 3-3 0.99-0.66 1.98-1.32 3-2-0.392 0.784-0.784 1.57-1.19 2.38-0.267 0.541-0.534 1.08-0.809 1.64-0.76 1.5-1.55 2.99-2.35 4.47-0.463 0.871-0.926 1.74-1.4 2.64-0.449 0.828-0.897 1.66-1.36 2.51-0.996 2.65-0.875 3.76 0.109 6.37 2.31 0.33 4.62 0.66 7 1 4.59-5.79 8.49-11.9 12.3-18.2 1.95-3.18 3.9-6.16 6.35-8.98 2.21-2.67 3.45-4.92 4.78-8.09 2.15-4.56 2.15-4.56 5.81-6.25 0.908-0.165 1.82-0.33 2.75-0.5 0.33-0.66 0.66-1.32 1-2-3.32 7.4-6.69 14.7-10.6 21.9-1.21 2.63-1.95 4.91-2.69 7.69-1.57 5.63-4.35 10.4-7.32 15.4-1.54 3.32-1.71 5.47-1.43 9.08 1.98 0.33 3.96 0.66 6 1 0.254-0.543 0.508-1.09 0.77-1.64 0.344-0.715 0.688-1.43 1.04-2.17 0.336-0.708 0.673-1.42 1.02-2.14 1.18-2.07 2.48-3.38 4.17-5.04 2.59-4.07 4.12-8.06 4.94-12.8 0.753-3.95 0.753-3.95 3.56-6.12 0.825-0.351 1.65-0.701 2.5-1.06 2.41-2.41 3.54-4.94 5-8-0.254 0.655-0.508 1.31-0.77 1.98-3.06 8.11-5.72 16.4-6.79 25-0.42 2.88-1.09 4.47-2.44 7-1.23 3.97-2.26 7.91-3 12 3.8 2.2 3.8 2.2 8 3 3.39-7.26 5.86-14.8 6.44-22.8 0.358-4.29 2.1-6.65 4.56-10.2 0.797-3.73 0.797-3.73 1-7h3c1.81-4.46 2.12-7.31 1-12h2c0 2.82-0.365 5.12-0.938 7.88-0.174 0.843-0.348 1.69-0.527 2.55-0.34 1.63-0.694 3.26-1.07 4.89-0.623 3.57-0.84 7.13-1.03 10.7-0.0417 0.774-0.0835 1.55-0.126 2.34-0.302 6.18-0.417 12.3-0.436 18.5-0.00459 0.858-0.00918 1.72-0.0139 2.6 0.00201 0.801 0.00403 1.6 0.0061 2.43 0.00169 1.06 0.00169 1.06 0.00342 2.14 0.0655 2.12 0.0655 2.12 1.13 4.89 1.65-0.33 3.3-0.66 5-1 2.89-8.03 2.71-16.5 3.12-25 0.41-7.1 1.27-13.6 3.24-20.5 0.9-3.63 0.852-6.85 0.637-10.6h4c-0.0348 1.08-0.0696 2.15-0.105 3.26-0.231 9.97-0.231 9.97 1.54 19.7 2.11 7.75 2.07 15.6 2.27 23.6 0.0265 1.06 0.053 2.11 0.0803 3.2 0.0176 0.954 0.0351 1.91 0.0532 2.89 0.01 2.34 0.01 2.34 1.16 4.32 1.67 0.0427 3.33 0.0406 5 0 1.91-1.91 1.27-5.3 1.35-7.84 0.0232-0.684 0.0463-1.37 0.0702-2.07 0.0477-1.45 0.0929-2.9 0.136-4.35 0.0671-2.23 0.145-4.45 0.224-6.68 0.0449-1.4 0.0892-2.81 0.133-4.21 0.0611-1.93 0.0611-1.93 0.124-3.9 0.306-2.83 0.306-2.83-1.04-3.94-0.0489-2.63-0.0416-5.24 0-7.88 0.0872-9.74-0.397-19.4-1-29.1 0.98 2.43 1.96 4.86 2.92 7.29 0.625 1.57 1.26 3.14 1.91 4.7 2.05 5.1 3.21 10.3 4.33 15.7 0.794 3.15 1.83 6.1 3.01 9.13 1.6 4.23 2.98 8.55 4.4 12.8 0.304 0.915 0.607 1.83 0.92 2.77 0.582 1.76 1.16 3.51 1.74 5.27 0.92 2.78 1.85 5.56 2.77 8.33h6c1.5-5.73 0.484-8.73-1.89-14.1-1.74-4.62-2.47-9.38-3.3-14.2-0.605-2.78-1.25-4.99-2.29-7.58-1.74-4.43-2.5-8.87-3.2-13.6-0.13-0.814-0.259-1.63-0.393-2.47-0.92-5.84-0.92-5.84-0.92-7.1 1.13 2.21 2.19 4.43 3.19 6.7 3.07 6.68 6.4 11.3 11.8 16.3 2.79 2.76 4.2 5.54 6.04 9.02 3.25 4.7 3.25 4.7 7 9 2.33 0.0409 4.67 0.0424 7 0-1.18-8.02-6.15-15-10-22h-2c-0.247-0.557-0.495-1.11-0.75-1.69-1.81-3.35-3.78-6.58-7.25-8.31-0.852-2.65-0.852-2.65-1.62-5.94-0.26-1.08-0.521-2.16-0.789-3.28-0.586-2.79-0.586-2.79-0.586-4.79 0.474 1.11 0.949 2.23 1.44 3.38 3.37 6.76 8.71 12.5 14.7 17 3.75 3.43 5.77 7.34 8.16 11.8 1.68 2.78 3.21 4.78 5.71 6.84 3.17 0.334 3.17 0.334 6 0 0.929-2.51 1.19-3.58 0.0742-6.07-0.458-0.678-0.915-1.36-1.39-2.05-0.675-1.02-0.675-1.02-1.36-2.07-1.34-1.92-1.34-1.92-3.32-3.8-0.351-1.22-0.701-2.43-1.06-3.69-1.68-4.84-4.87-7.01-8.98-9.87-1.96-1.45-1.96-1.45-2.96-3.45h-2c-2-5.75-2-5.75-2-8 2.55 1.97 4.91 3.91 7.12 6.25 3.49 3.34 7.3 6.02 11.3 8.79 2.62 1.96 2.62 1.96 4.84 4.21 1.61 1.99 1.61 1.99 3.79 1.75 0.433 0.959 0.433 0.959 0.875 1.94 0.953 2.21 0.953 2.21 3.12 3.06 1.54 0.0695 3.08 0.0845 4.62 0.0625 0.817-0.00902 1.63-0.018 2.48-0.0273 0.626-0.0116 1.25-0.0232 1.9-0.0352 0.33-1.65 0.66-3.3 1-5-1.01-0.797-1.01-0.797-2.05-1.61-0.892-0.706-1.78-1.41-2.7-2.14-0.882-0.696-1.76-1.39-2.67-2.11-2.58-2.14-2.58-2.14-4.57-4.17-2.29-2.25-4.74-3.97-7.38-5.79-4.65-3.34-8.13-6.7-11.6-11.2-4.03-4.82-8.04-9.13-13-13 5.37 0.827 9.28 4.27 13 8 4 3.25 8.16 5.67 12.8 7.78 9.41 4.23 15.4 9.57 21.2 18.2 3.54 0.333 3.54 0.333 7 0l1-1c0-3.64-0.115-5.89-2.42-8.77-1.21-1.18-2.45-2.34-3.7-3.47-1.8-1.69-3.16-3.41-4.63-5.38-3.18-3.82-6.96-5.26-11.5-7.11-3.49-1.6-6.26-3.7-9.2-6.13-1.51-1.33-1.51-1.33-3.56-1.14-0.33-0.99-0.66-1.98-1-3-1.75-1.63-1.75-1.63-3.88-3.12-0.699-0.518-1.4-1.04-2.12-1.57-2.07-1.47-2.07-1.47-5.01-2.3 5.82 0.727 10.7 3.77 15.8 6.46 4.91 2.54 9.61 4.75 14.9 6.29 9.51 2.95 18.1 8.76 26.3 14.2 2.58 0.25 2.58 0.25 5 0 1.37-1.15 1.37-1.15 1.12-4.25-0.716-3.71-0.716-3.71-2.88-5.11-1.56-0.835-3.15-1.63-4.74-2.4-2.4-1.19-4.36-2.53-6.5-4.11-4.94-3.39-10.3-5.4-15.8-7.59-4.38-1.75-8.36-3.61-12.3-6.28-2.45-1.63-5-3.03-7.58-4.45-1.34-0.733-1.34-0.733-2.7-1.48-2.5-1.28-5-2.32-7.61-3.33-1.09-0.472-2.18-0.944-3.3-1.43-3.92-1.69-7.89-3.2-11.9-4.7-1.05-0.396-1.05-0.396-2.12-0.801-3.21-1.2-6.36-2.29-9.7-3.07 0.33-0.66 0.66-1.32 1-2 0.692 0.254 1.38 0.508 2.1 0.77 5.69 2 11.2 3.55 17.2 4.61 8.7 1.63 18 4.25 25.7 8.74 2.76 1.17 5.42 1.38 8.39 1.72 9.6 1.13 17.1 3.71 25.5 8.42 2.59 1.4 4.44 2.08 7.22 2.74 0.33 0.66 0.66 1.32 1 2 3.44 2.29 4.99 2.18 9 2 0-4.31-0.668-5.4-3.46-8.52-2.57-2.47-5.41-4.26-8.48-6.04-0.983-0.577-0.983-0.577-1.99-1.17-9.48-5.39-19.4-8.24-30-10.5-7.48-1.83-14.2-5.28-21-8.74 2.94 0.308 5.88 0.622 8.81 0.938 0.833 0.087 1.67 0.174 2.53 0.264 0.802 0.087 1.6 0.174 2.43 0.264 0.738 0.0786 1.48 0.157 2.24 0.238 1.99 0.297 1.99 0.297 4.99 1.3 2.9 0.157 5.79 0.276 8.69 0.375 9.92 0.426 19.9 1.41 29.4 4.68 3.17 1.01 6.01 1.35 9.32 1.57 1.59 0.112 1.59 0.112 3.21 0.227 1.19 0.0735 1.19 0.0735 2.41 0.148 0.33-0.99 0.66-1.98 1-3-4.09-4.89-7.91-6.39-14-8-0.968-0.257-1.94-0.513-2.93-0.777-3.02-0.772-6.04-1.5-9.07-2.22-0.715-0.186-1.43-0.371-2.17-0.562-5.53-1.37-11.1-1.95-16.8-2.54-5.85-0.658-11.5-1.76-17.3-2.96-10.6-2.16-21-2.72-31.8-2.94v-3c0.657 0.0303 1.31 0.0606 1.99 0.0918 12.6 0.568 25.2 1.02 37.8 1.1 1.57 0.0193 1.57 0.0193 3.18 0.0391 0.98 0.00129 1.96 0.00258 2.97 0.00391 1.28 0.00616 1.28 0.00616 2.59 0.0125 2.49-0.115 2.49-0.115 4.7-1.26 3.96-1.42 7.6-1.12 11.8-0.961 0.859 0.025 1.72 0.0501 2.6 0.0758 2.73 0.0819 5.46 0.179 8.19 0.276 1.86 0.0583 3.71 0.116 5.57 0.172 4.54 0.14 9.08 0.293 13.6 0.453-1.46-4.24-2.8-6.13-6.91-8.22-3.97-1.49-7.88-1.66-12.1-1.78-1.27-0.04-2.54-0.0799-3.85-0.121-12.4-0.363-12.4-0.363-24.2 3.12-5.73 0.249-10.9-0.349-16.5-1.5-0.727-0.143-1.45-0.286-2.2-0.434-1.77-0.349-3.53-0.707-5.3-1.07 3.71-2.48 6.82-3.56 11.2-4.38 5.31-1.14 9.59-2.79 14.3-5.36 4.93-2.52 10.3-4.22 15.5-5.93 6.46-2.21 12.1-5.8 17.9-9.33-0.33-1.98-0.66-3.96-1-6-5.87 0.914-10.8 2.17-16 5-3.5 1.78-7.24 2.83-11 4-2.02 0.662-4.04 1.33-6.06 2-1.53 0.507-1.53 0.507-3.09 1.02-2.36 0.808-4.66 1.68-6.97 2.6-3.78 1.46-7.59 2.18-11.6 2.91-2.86 0.577-5.54 1.52-8.31 2.46-2.31 0.548-4.63 1.05-6.95 1.54-2.23 0.471-2.23 0.471-5.05 1.46v2c-0.99-0.33-1.98-0.66-3-1 0.66-0.33 1.32-0.66 2-1v-2c0.99-0.309 0.99-0.309 2-0.625 2.68-1.23 4.46-2.44 6.75-4.25 3.49-2.7 6.91-4.45 11-6.14 5.83-2.52 11.2-5.89 16.5-9.36 5.34-3.47 10.9-6.14 16.6-8.75 3.79-2.24 5.61-4.31 8.16-7.87v-2h2c0.33-1.32 0.66-2.64 1-4-2.94-0.861-4.52-1.19-7.42-0.0742-1.15 0.686-1.15 0.686-2.33 1.39-0.779 0.45-1.56 0.9-2.36 1.36-2.02 1.19-2.02 1.19-2.89 3.32-1.97 0.895-1.97 0.895-4.5 1.81-6.16 2.37-11.7 5.47-17.3 8.89-7.75 4.65-15.6 8.44-24.2 11.3 0.392-0.371 0.784-0.743 1.19-1.12 1.51-1.56 2.92-3.21 4.31-4.88 2.5-3 2.5-3 4-4.48 3.36-3.41 5.93-7.38 8.06-11.6 2.96-5.91 7.08-9.26 12.3-13.2 2.61-2.04 4.87-4.33 7.18-6.7 1.31-1.03 2.64-2.04 4-3l-2-4c-6.18 0.618-11.9 2.55-16 7.38-0.66 0.866-1.32 1.73-2 2.62-1.29 0.964-2.61 1.9-3.94 2.81-4.29 3.09-6.59 6.58-9.06 11.2-2.71 4.86-5.54 9.18-11 11-1.61 1.55-1.61 1.55-3.19 3.5-0.911 1.07-0.911 1.07-1.84 2.16-0.976 1.16-0.976 1.16-1.97 2.34-1.41 1.63-2.83 3.26-4.25 4.88-0.645 0.74-1.29 1.48-1.95 2.24-1.8 1.88-1.8 1.88-4.8 3.88-0.33-0.99-0.66-1.98-1-3 1.56-2.79 3.21-5.36 5-8 1.26-1.89 2.52-3.78 3.78-5.68 0.88-1.32 1.76-2.64 2.65-3.96 4.86-6.98 4.86-6.98 7.57-14.9 2.03-7.36 7.72-12.2 13-17.4 2.26-2.02 2.26-2.02 3.5-5.5 1.61-3.75 3.68-5.68 6.5-8.5-1.98-1.49-1.98-1.49-4-3-3.96 1.67-6.84 4.13-10 7v2h-2c-0.413 0.722-0.825 1.44-1.25 2.19-2.43 3.91-5.58 6.73-9.75 8.81-0.606 1.56-1.2 3.13-1.75 4.71-3.12 8.99-7.87 15.5-14 22.7-1.94 2.41-3.6 4.96-5.26 7.57-0.234-3.89 0.344-6.19 2.12-9.62 2.47-5.16 4.22-10.4 5.88-15.8 1.99-6.55 4.23-12.8 6.97-19.1 1.3-3.1 2.15-6.21 3.03-9.45 0.625-1.35 1.27-2.7 2-4-2.75-0.946-2.75-0.946-6-1-5 3.57-6.82 8.47-9 14-0.34 0.81-0.681 1.62-1.03 2.45-1.67 4.03-3.09 7.94-4.16 12.2-2.17 7.71-6.76 14.5-10.8 21.4-0.935-5.49-1.09-9.03 0.812-14.4 3.23-9.2 4.49-18 4.81-27.8 0.058-1.43 0.058-1.43 0.117-2.9 0.093-2.33 0.179-4.65 0.258-6.98h-5c-0.33 1.65-0.66 3.3-1 5h-3c-0.439 2.31-0.876 4.62-1.31 6.94-0.135 0.711-0.269 1.42-0.408 2.15-0.727 3.87-1.43 7.74-2.08 11.6-0.129 0.76-0.257 1.52-0.389 2.3-0.246 1.47-0.488 2.93-0.723 4.4-0.6 3.55-1.4 6.42-3.09 9.59-0.111-0.549-0.221-1.1-0.335-1.66-0.508-2.51-1.02-5.02-1.54-7.52-0.174-0.864-0.348-1.73-0.527-2.62-0.882-4.26-1.82-8.2-3.6-12.2-0.616-1.54-1.23-3.07-1.84-4.61-0.698-1.71-1.4-3.43-2.1-5.14-0.347-0.875-0.695-1.75-1.05-2.65-0.342-0.831-0.684-1.66-1.04-2.52-0.307-0.759-0.613-1.52-0.929-2.3-0.984-2.12-0.984-2.12-4.04-2.78zm112 13c-0.66 0.66-1.32 1.32-2 2 0.743 0.548 1.49 1.1 2.25 1.66 2.82 2.4 4.66 4.74 6.75 7.78 4.82 6.78 10.5 12 16.7 17.5 2.3 2.09 2.3 2.09 3.98 3.86 1.26 1.45 1.26 1.45 3.32 1.23 0.402 1.08 0.402 1.08 0.812 2.19 1.09 2.8 1.09 2.8 2.64 5.1 1.68 2.95 2.56 5.7 3.48 8.96 1.08 3.84 2.33 7.39 4.02 11 2.31 5.09 3.55 10.3 4.73 15.7 0.318 1.39 0.318 1.39 0.643 2.8 3.06 13.8 3.83 27.7 1.17 41.6-0.433 2.32-0.718 4.58-0.938 6.93-1.09 7.29-4.38 13.7-7.48 20.3-1.22 2.71-2.08 5.41-2.9 8.26-1.28 3.43-2.91 5.82-5.12 8.72-3.18 4.19-5.93 8.42-8.5 13-1.64 2.56-3.38 4.32-5.56 6.44-1.11 1.26-2.22 2.54-3.31 3.81-9.02 10.4-9.02 10.4-12.7 12.2-2.14 1.07-3.32 2.29-4.98 3.99-1.44 1.01-2.9 1.99-4.38 2.94-2.5 1.63-4.82 3.23-7.12 5.12-6.47 5.02-13.9 8.09-21.5 10.9-1.21 0.472-2.42 0.944-3.67 1.43-4.79 1.79-9.67 3.19-14.6 4.57-0.865 0.247-1.73 0.495-2.62 0.75-1.78 0.506-3.57 1-5.36 1.49-1.86 0.512-3.72 1.05-5.57 1.61-8.32 2.38-16.2 2.47-24.8 2.27-2.68-0.0462-5.36-0.0825-8.04-0.117-1.17-0.0243-2.34-0.0487-3.55-0.0737-2.75-0.133-2.75-0.133-4.79 1.07-0.33-0.66-0.66-1.32-1-2-0.66 0.165-1.32 0.33-2 0.5-26.9 4.49-61.7-12.4-83.1-27.7-1.66-1.26-3.3-2.53-4.94-3.81-0.654-0.512-1.31-1.02-1.98-1.55-3.85-3.15-7.06-6.67-10.3-10.5-1.65-1.89-3.38-3.63-5.18-5.37-7.08-6.98-15.4-16.1-18.6-25.6h-2c-1.33-3.33-2.67-6.67-4-10-0.493-1.11-0.493-1.11-0.996-2.23-1.15-3.17-1.62-6.17-2.07-9.52-0.221-3.95-0.221-3.95-1.94-7.25-0.215-1.95-0.371-3.91-0.5-5.88-0.278-4.08-0.604-8.13-1.06-12.2-1.43-16-1.35-31.3 5.73-46 0.998-2.11 0.998-2.11 1.27-5.21 0.893-5.95 3.24-11.2 5.56-16.8 0.425-1.11 0.851-2.21 1.29-3.36 4.67-10.8 12.4-17.9 20.9-25.9 2.15-2.11 4.02-4.36 5.81-6.78-2.92-0.167-2.92-0.167-6 0l-2 2c-1.75 0.501-3.53 0.928-5.31 1.31-8.72 2.07-17.1 4.96-24.7 9.69-1.65 0.697-3.32 1.36-5 2-1.02 0.445-2.05 0.889-3.11 1.35-4.98 2.15-10.1 4.04-15.1 5.96-4.44 1.7-8.69 3.6-12.9 5.77-2.58 1.3-5.23 2.4-7.9 3.49-1.03 0.424-2.05 0.848-3.11 1.29-1.62 0.661-3.24 1.32-4.87 1.96-3.99 1.62-7.51 3.67-11.1 6-1.48 0.95-3 1.83-4.54 2.69-2.84 1.84-4.95 4.08-7.31 6.5-2.91 2.48-5.61 4.3-9 6-1.02 0.976-2.02 1.98-3 3-2.73 2.33-5.45 4.61-8.38 6.69-0.536 0.433-1.07 0.866-1.62 1.31v2c-0.608 0.25-1.22 0.5-1.84 0.758-2.5 1.44-3.26 2.62-4.66 5.12-1.82 3.24-3.87 5.51-6.5 8.12-1.45 1.85-2.86 3.73-4.25 5.62-3.01 4.06-6.05 8.09-9.19 12.1-0.638 0.808-1.28 1.62-1.93 2.45-1.63 1.86-1.63 1.86-3.63 2.86-0.268 0.578-0.536 1.15-0.812 1.75-1.19 2.25-1.19 2.25-3.75 4.75-2.58 2.2-2.58 2.2-2.88 4.69-0.278 0.897-0.278 0.897-0.562 1.81-1.36 0.402-1.36 0.402-2.75 0.812-3.8 1.39-5.28 2.94-7.88 6-0.735 0.852-1.47 1.7-2.23 2.58-0.709 0.86-1.42 1.72-2.15 2.61-0.696 0.834-1.39 1.67-2.11 2.53-2.32 3.03-3.99 6.21-5.74 9.58-1.15 1.89-1.15 1.89-3.15 2.89-1.03 1.65-2.02 3.32-3 5-0.929 1.42-1.87 2.84-2.81 4.25-0.518 0.775-1.04 1.55-1.57 2.35-1.07 1.59-2.15 3.19-3.23 4.77-2.26 3.33-4.33 6.53-6.13 10.1-1.25 2.5-1.25 2.5-3.25 3.5-0.474 1.11-0.949 2.23-1.44 3.38-1.56 3.62-1.56 3.62-2.96 5-2.14 2.16-3.4 4.53-4.86 7.18-0.541 0.971-1.08 1.94-1.64 2.94-0.366 0.824-0.732 1.65-1.11 2.5 0.33 0.66 0.66 1.32 1 2 1.91 0.529 1.91 0.529 4.23 0.781l2.63 0.363c1.37 0.176 1.37 0.176 2.77 0.355 9.65 1.27 9.65 1.27 13.6 2.52 5.97 1.55 12 1.72 18.2 2.1 1.96 0.13 1.96 0.13 3.95 0.262 3.2 0.211 6.41 0.415 9.61 0.613v1c0.79 0.0374 1.58 0.0748 2.39 0.113 7.21 0.42 14.3 1.17 21.4 2.26 0.775 0.114 1.55 0.228 2.35 0.345 3.85 0.613 7.37 1.42 11 2.78 6.21 2.16 12.6 2.51 19.1 3.06 1.39 0.125 2.78 0.25 4.16 0.375 7.8 0.684 15.6 1.21 23.4 1.63 0.815 0.0434 1.63 0.0868 2.47 0.132 3.98 0.208 7.95 0.4 11.9 0.572 0.738 0.0349 1.48 0.0699 2.24 0.106 2 0.0945 3.99 0.18 5.99 0.265 3.45 0.361 6.21 1.25 9.48 2.36 2.35 0.336 4.71 0.604 7.08 0.816 0.653 0.0614 1.31 0.123 1.98 0.186 2.06 0.193 4.13 0.377 6.19 0.56 2.08 0.187 4.16 0.377 6.24 0.571 1.88 0.175 3.75 0.342 5.63 0.51 2.89 0.357 2.89 0.357 4.89 1.36 1.49 0.184 2.98 0.32 4.47 0.43 0.9 0.0735 1.8 0.147 2.73 0.223 1.88 0.146 3.76 0.287 5.64 0.422 5.35 0.448 9.91 1.39 14.9 3.23 3.83 1.2 7.73 1.45 11.7 1.76 4.74 0.39 9.32 0.832 13.9 1.96 4.97 1.17 9.84 1.44 14.9 1.61 1.01 0.0372 2.02 0.0744 3.06 0.113 9.44 0.304 18.9 0.368 28.3 0.387 1.07 0.00402 1.07 0.00402 2.15 0.00812 8.09 0.0232 16.1-0.155 24.2-0.617 8.58-0.483 17.1-0.641 25.7-0.727 1.34-0.0144 2.69-0.0288 4.03-0.0433 5.51-0.0579 11-0.113 16.5-0.147 15.2-0.099 30.3-0.531 45.5-2.01 1.27-0.124 2.54-0.247 3.84-0.375 6.07-0.638 12-1.5 17.9-2.77 3.8-0.722 7.62-0.955 11.5-1.18 1.74-0.114 3.48-0.229 5.21-0.343 0.895-0.0565 1.79-0.113 2.71-0.171 4.7-0.3 9.4-0.631 14.1-0.962 0.93-0.0655 1.86-0.131 2.82-0.198 24.8-1.5 24.8-1.5 48.8-7.45 2.76-0.985 5.34-1.65 8.21-2.19 3.42-0.687 5.9-2.01 8.88-3.86 7.4-3.86 16.2-5.45 24.3-7.36 1.89-0.488 3.77-1.05 5.62-1.67 3.59-1.19 7.22-2.14 10.9-3.04 0.71-0.175 1.42-0.35 2.15-0.531 8.91-2.18 17.7-3.76 26.8-4.77 3.43-0.126 3.43-0.126 6.27-1.7 2.29-0.371 4.58-0.684 6.88-0.973 0.687-0.0874 1.37-0.175 2.08-0.265 2.2-0.279 4.4-0.552 6.6-0.825 1.49-0.188 2.98-0.376 4.47-0.564 3.66-0.462 7.31-0.919 11-1.37v-2h52c0.33 0.66 0.66 1.32 1 2 1.89 0.542 1.89 0.542 4.12 0.875 3.31 0.654 5.86 1.5 8.75 3.25 2.95 2.13 2.95 2.13 6.12 1.88-1.32-3.72-2.92-6.4-5.44-9.44-2.71-3.37-4.7-6.64-6.56-10.6-0.66-0.33-1.32-0.66-2-1-0.567-2.18-0.892-4.36-1.24-6.58-0.974-3.11-2.67-4.93-4.76-7.42-1.85-2.9-3.63-5.83-5.41-8.77-0.523-0.736-1.05-1.47-1.59-2.23h-2c-0.66-1.65-1.32-3.3-2-5h-2c-0.237-0.725-0.474-1.45-0.718-2.2-1.49-3.26-3.25-5.12-5.79-7.64-0.905-0.9-1.81-1.8-2.74-2.73-0.473-0.463-0.946-0.926-1.43-1.4-1.42-1.39-2.83-2.8-4.25-4.2-6.87-6.79-14-13.2-21.4-19.3l-2.83-2.31c-2.61-2.1-5.23-4.18-7.86-6.25-4.2-3.35-8.19-6.88-12.2-10.5-3.3-2.97-6.66-5.86-10-8.75-0.578-0.495-1.16-0.991-1.75-1.5-1.12-0.954-2.24-1.91-3.36-2.86-1.11-0.947-2.22-1.9-3.32-2.86-2.76-2.68-2.76-2.68-6.31-3.53-0.33-0.99-0.66-1.98-1-3-3.66-2.95-7.72-5.37-11.9-7.44-5.55-2.83-10.5-6.67-15.5-10.4-5.36-3.89-10.8-6.99-16.8-9.84-2.76-1.36-2.76-1.36-5.07-2.78-3.67-2.15-7.49-3.86-11.4-5.58-0.802-0.357-1.6-0.713-2.43-1.08-4.88-2.14-9.71-3.96-14.9-5.35-3.14-0.887-6.04-2.24-9.02-3.57-1.5-0.611-3-1.21-4.5-1.81-0.853-0.342-1.71-0.683-2.59-1.04-2.1-0.832-4.21-1.65-6.33-2.46-6.81-2.65-13.4-5.5-19.9-8.82-12.6-6.41-25.1-10.1-38.8-13.2-2.85-0.648-2.85-0.648-5.1-1.36-0.576-0.0954-1.15-0.191-1.75-0.289zm-80 13 1 2zm77 2 1 2zm-212 54v1h6v-1h-6zm-10 1v1h6v-1h-6zm-21 5 1 2zm15 22 4 1zm213 0v1h11v-1h-11zm58 23 1 2zm-287 9 1 3zm145 50 1 2zm14 1 1 4zm81 9 1 3zm245 8v1h6v-1h-6zm-25 1 4 1zm-237 5 1 2zm-41 5 1 2zm-22 4 1 2zm-42 14 1 2zm6 9v1h7v-1h-7zm37 0v1h9v-1h-9zm-73 10 4 1z" fill="#CC5A1C"/>
<path transform="translate(790 885)" d="m0 0c1.22 0.0554 2.45 0.111 3.71 0.168 6.47 1.2 9.48 5.75 13.5 10.6l5 5c0.742 0.681 1.49 1.36 2.25 2.06 4.35 7.29 2.79 17 2.44 25.2-0.0516 1.27-0.0516 1.27-0.104 2.57-0.269 4.99-1.07 9.33-2.58 14.1-0.13 0.829-0.26 1.66-0.395 2.51-0.5 2.6-1.09 4.29-2.61 6.49-7.68 4.6-16 4.46-24.5 2.96-7.61-2.11-13-6.55-17.5-13-3.48-7.08-4.18-13.1-4.19-20.9-0.0184-1.17-0.0184-1.17-0.0371-2.36-0.0212-8.39 2.62-15.3 6.22-22.8 0.309-0.645 0.619-1.29 0.938-1.95 4.09-7.83 9.11-11.3 17.9-10.9zm-22.8 22.8 1 2zm-1 21 1 3z" fill="#CD5B1D"/>
<path transform="translate(284 966)" d="m0 0c0.729-0.029 1.46-0.058 2.21-0.0879 5.32-0.0623 7.83 1.25 12.2 4.4 2.32 0.346 2.32 0.346 4.5-0.125 0.712-0.106 1.42-0.211 2.16-0.32 2.44-0.527 2.44-0.527 5.09-1.57 3.41-1.03 6.13-1.22 9.68-1.21 1.78 0.0029 1.78 0.0029 3.61 0.00586 1.23 0.0122 2.46 0.0245 3.72 0.0371 1.87 9.67e-4 1.87 9.67e-4 3.77 0.00195 9.2 0.045 9.2 0.045 11.5 1.19 1.68 0.0804 3.36 0.0967 5.04 0.0818 1.05-0.00653 2.1-0.0131 3.19-0.0198 1.14-0.0114 2.28-0.0229 3.45-0.0347 2.4-0.0126 4.79-0.025 7.19-0.0371 3.79-0.0248 7.58-0.0528 11.4-0.0862 3.65-0.0301 7.3-0.048 10.9-0.0642 1.14-0.0135 2.28-0.0269 3.45-0.0408 1.58-0.00507 1.58-0.00507 3.2-0.0102 0.929-0.00746 1.86-0.0149 2.81-0.0226 2.36 0.234 2.36 0.234 5.36 2.23 2.18 0.381 2.18 0.381 4.5 0.5 3.48 0.232 4.46 0.47 7.5 2.5v3c-12.6 5.51-26.2 4.9-39.8 5.25-2.38 0.0766-4.76 0.155-7.14 0.234-11.7 0.374-23.5 0.588-35.2 0.625-1.06 0.00558-2.12 0.0112-3.21 0.0169-1.46-0.00112-1.46-0.00112-2.95-0.00226-1.28 6.95e-4 -1.28 6.95e-4 -2.58 0.0014-2.19-0.125-2.19-0.125-5.19-1.13-1.94 0.492-3.87 0.989-5.8 1.52-2.29 0.494-4.31 0.581-6.64 0.539-1.76-0.0309-1.76-0.0309-3.56-0.0625l-1 1c-2.8 0.376-5.58 0.694-8.39 0.973-0.856 0.0874-1.71 0.175-2.59 0.265-1.82 0.185-3.65 0.367-5.47 0.547-2.75 0.273-5.49 0.557-8.24 0.843-5.1 0.52-10.2 0.98-15.3 1.37-0.696 0.0539-1.39 0.108-2.11 0.163-1.81 0.124-3.62 0.199-5.44 0.27-0.973 0.0405-1.95 0.081-2.95 0.123-3.53-0.783-4.46-2.68-6.5-5.56-1.96-1.39-3.95-2.74-6-4 3.58-4.44 7.99-5.81 13.2-7.69 1.64-0.606 3.28-1.21 4.92-1.82 0.723-0.263 1.45-0.525 2.19-0.796 1.7-0.565 1.7-0.565 2.7-1.69 2.68-0.0432 5.33-0.0468 8 0 3.04 0.0753 3.04 0.0753 6.15-0.48 4.17-0.563 8.21-0.776 12.4-0.832zm29.4 2.31 4 1zm6 0 4 1zm7 0v1h7v-1h-7z" fill="#CC5A1C"/>
<path transform="translate(871,524)" d="m0 0c2.81 1.66 3.89 2.72 5.12 5.79 1.47 6.58 2.06 11.9 1.08 18.6-0.196 1.41-0.391 2.81-0.585 4.22-0.154 1.09-0.154 1.09-0.311 2.2-0.509 3.74-0.922 7.49-1.34 11.2-0.171 1.52-0.342 3.03-0.514 4.55-0.259 2.31-0.518 4.61-0.777 6.92-0.256 2.28-0.514 4.57-0.772 6.85-0.0761 0.684-0.152 1.37-0.23 2.07-0.441 3.89-1 7.75-1.67 11.6-1.63 11.2-2.21 22.2-1.84 33.5 0.123 5.89-0.543 10.7-2.43 16.2-0.987 3.05-1.4 6.09-1.8 9.26-0.715 5.78-0.715 5.78-2.94 8-1.55 6.15-1.02 12.5-0.873 18.8 0.011 0.862 0.0219 1.72 0.0332 2.61 0.0168 0.779 0.0337 1.56 0.051 2.36-0.243 2.53-0.824 4.08-2.21 6.19-2.81 1.06-2.81 1.06-6 1-3.36-2.39-4.78-3.98-5.67-8.04-0.406-4.87-0.157-9.53 0.193-14.4 0.0656-0.99 0.131-1.98 0.199-3 0.14-2.09 0.283-4.17 0.429-6.26 0.222-3.17 0.435-6.34 0.646-9.51 0.137-2.04 0.275-4.07 0.414-6.11 0.0636-0.938 0.127-1.88 0.193-2.84 1.11-15.8 1.11-15.8 3.6-22.9 0.568-3.29 1-6.57 1.44-9.88 0.562-3.12 0.562-3.12 1.56-5.37 1.23-3.39 1.41-6.37 1.6-9.96 0.0392-0.684 0.0784-1.37 0.119-2.07 0.123-2.18 0.235-4.35 0.346-6.53 0.116-2.17 0.235-4.33 0.357-6.5 0.11-1.97 0.213-3.95 0.315-5.92 0.377-5.35 0.951-10.6 2.27-15.8 0.307-2.39 0.596-4.79 0.875-7.19 0.636-5.13 1.57-9.85 3.41-14.7 1.1-3.25 1.58-6.58 2.09-9.96 0.717-2.48 1.67-3.52 3.62-5.16zm-15 86 1 2zm-4 19 1 2z" fill="#CD5B1D"/>
<path transform="translate(557,560)" d="m0 0c3.46 1.15 4.05 2.03 6.19 4.88 0.611 0.812 1.22 1.62 1.85 2.46 0.971 1.32 0.971 1.32 1.96 2.66 1 1.35 1 1.35 2.02 2.73 2.02 2.74 4 5.51 5.98 8.27 0.503 0.67 1.01 1.34 1.52 2.03 4.22 5.88 7.12 12.3 10.1 18.9 3.19 6.87 6.73 13.5 10.4 20.1 2.17 4.07 3.54 8.08 4.82 12.5 2 6.75 4.44 11.9 9.48 16.9 8.21 8.35 14.4 19.9 18.1 30.9 1.35 3.32 2.07 4.45 4.44 6.88 3.72 4 4.76 8.54 6.19 13.7 0.71 2.51 1.5 4.79 2.56 7.16 0.65 1.45 0.65 1.45 1.31 2.94 0.309 0.681 0.619 1.36 0.938 2.06 0.107 3.31-2.02 5.38-3.94 7.94-3.88-0.554-5.47-2.07-8-5-1.47-2.47-2.7-5.03-3.94-7.62-0.528-1.08-0.528-1.08-1.07-2.18-1.44-2.95-2.86-5.91-4.27-8.87-5.11-10.5-11.3-20.5-17.6-30.4-4.96-7.78-9.23-15.7-13.2-24-2.54-5.28-5.09-10.4-8.34-15.3-3.99-6.18-7.52-12.5-9.94-19.4-1.33-3.77-3.19-7.13-5.12-10.6-2.45-4.45-4.37-8.66-5.83-13.5-1.37-4.17-3.37-8.19-5.89-11.8-1.77-2.59-2.84-4.53-2.59-7.7 0.496-2.24 1.08-4.39 1.8-6.56z" fill="#CC5A1C"/>
<path transform="translate(471,672)" d="m0 0c12.2 4.43 22.5 14.7 32 23.2 0.847 0.761 0.847 0.761 1.71 1.54 2.8 2.59 4.61 4.83 6.29 8.21 0.607 0.3 1.21 0.601 1.84 0.91 3.07 1.55 4.61 3.83 6.72 6.53 3.38 4.28 6.43 7.92 10.9 11.1 2.66 1.94 5.11 3.98 7.47 6.27 5.8 6.21 5.8 6.21 13.4 9.23 4.49 1.22 4.91 2.28 7.31 6.12 0.561 0.978 1.12 1.96 1.7 2.96 2.24 3.89 4.91 7.38 7.68 10.9-1.53 1.21-3.07 2.39-4.62 3.56-0.859 0.661-1.72 1.32-2.6 2-3.44 1.78-5.12 1.55-8.77 0.434-0.684-1.32-1.35-2.66-2-4-0.846-0.268-1.69-0.536-2.56-0.812-4.99-1.72-8.41-4.84-12.4-8.19-1.05-0.852-2.1-1.7-3.15-2.55-6.84-5.6-13.5-11.4-18.8-18.4v-2h-2c-1.34-1.43-1.34-1.43-2.94-3.44-2.85-3.37-5.83-6.09-9.31-8.81-9.95-7.96-17.5-17.4-24.7-27.8-1.88-2.86-1.88-2.86-3.89-4.55-1.2-1.38-1.2-1.38-1.31-3.57 0.119-0.782 0.237-1.56 0.359-2.37 0.108-0.785 0.217-1.57 0.328-2.38 0.422-2.06 0.422-2.06 1.42-4.06z" fill="#CC5A1C"/>
<path transform="translate(1238,715)" d="m0 0c-0.579 3.91-2.27 6.2-5 9-2 0.679-4 1.35-6 2-1.21 2-1.21 2-2 4-1.48 0.495-1.48 0.495-3 1-0.495 1.49-0.495 1.49-1 3-1.33 0.333-2.67 0.667-4 1-0.495 1.49-0.495 1.49-1 3-1.86 1.46-1.86 1.46-4.19 2.94-1.23 0.785-1.23 0.785-2.48 1.59-0.77 0.487-1.54 0.975-2.33 1.48-0.99 0.681-1.98 1.36-3 2.06-4.77 3.08-9.77 5.72-14.8 8.44-3.67 2.45-6.5 5.66-9.44 8.94-3.89 3.55-8.25 5.97-12.8 8.56-1.06 0.628-1.06 0.628-2.13 1.27-4.61 2.73-4.61 2.73-6.87 2.73-0.33 0.99-0.66 1.98-1 3-2.11 0.992-2.11 0.992-4.75 1.88-5.25 1.98-8.07 4.43-11.6 8.79-3.26 3.95-6.58 6.95-10.8 9.91-1.77 1.34-3.16 2.72-4.64 4.36-0.743 0.681-1.48 1.36-2.25 2.06-2.06-0.125-2.06-0.125-4-1-2.94-0.828-4.82-1-8-1-0.75-2.75-0.75-2.75-1-6 2.09-3 4.77-4.46 7.88-6.25 3.93-2.35 5.99-5.05 8.57-8.77 2.15-2.74 4.69-4.54 7.53-6.53 2.7-1.93 5.13-4.12 7.58-6.35 1.45-1.1 1.45-1.1 3.45-1.1 0.232-0.73 0.464-1.46 0.703-2.21 1.54-3.3 3.32-5.01 6.05-7.41 0.84-0.755 1.68-1.51 2.55-2.29 2.79-2.16 5.51-3.59 8.7-5.09 1.84-0.991 3.67-1.99 5.5-3 11-6 11-6 13.5-6v-2c1.13-0.626 2.26-1.25 3.43-1.9 1.48-0.825 2.96-1.65 4.45-2.48 0.746-0.413 1.49-0.825 2.26-1.25 0.715-0.4 1.43-0.799 2.17-1.21 0.99-0.55 0.99-0.55 2-1.11 1.86-1.07 1.86-1.07 3.7-3.05 1.76-0.425 3.53-0.79 5.31-1.12 7.55-1.77 13.3-5.65 19.7-9.88 1.67-1.04 3.36-2.07 5.06-3.06 1.01-0.605 1.01-0.605 2.04-1.22 2.35-0.884 3.57-0.54 5.9 0.285z" fill="#CD5B1D"/>
<path transform="translate(1352 981)" d="m0 0c0.855 0.0664 1.71 0.133 2.59 0.201 6.3 0.624 6.3 0.624 9.5 3.19 0.464 0.633 0.928 1.27 1.41 1.92-1.47 3.88-3.32 5.18-7 7-3.23 0.441-3.23 0.441-6.62 0.562-5.01 0.13-5.01 0.13-9.38 2.44-2.73 0.366-5.39 0.63-8.13 0.816-0.792 0.0614-1.58 0.123-2.4 0.186-2.53 0.195-5.06 0.378-7.59 0.56-2.54 0.187-5.08 0.376-7.61 0.571-1.58 0.121-3.16 0.237-4.74 0.347-3.56-0.0329-3.56-0.0329-6.53 1.52-2.59 0.4-5.15 0.725-7.75 1-0.821 0.0869-1.64 0.174-2.49 0.263-15.5 1.5-31.1 1.92-46.7 1.65-2.17-0.058-2.17-0.058-4.11 1.08-3.16 0.237-6.33 0.185-9.5 0.188-0.88 0.0122-1.76 0.0245-2.67 0.0371-0.842 0.00193-1.68 0.00387-2.55 0.00586-0.773 0.00411-1.55 0.00822-2.34 0.0125-1.94-0.243-1.94-0.243-3.94-2.24 0.188-2.5 0.188-2.5 1-5 3.36-2.24 5.1-2.39 9.06-2.81 9.75-1.27 19.5-3.73 28.7-7.25 5.07-1.48 10.2-1.92 15.5-2.5 2.17-0.248 4.34-0.499 6.52-0.754 0.957-0.108 1.91-0.215 2.9-0.326 2.35-0.237 2.35-0.237 4.33-1.36 1.49-0.113 2.98-0.167 4.48-0.189 0.928-0.0167 1.86-0.0334 2.81-0.0507 1.01-0.0136 2.01-0.0272 3.05-0.0411 1.03-0.0184 2.06-0.0368 3.12-0.0558 3.3-0.0589 6.61-0.112 9.92-0.163 4.34-0.0677 8.68-0.141 13-0.219 1-0.0136 2-0.0272 3.03-0.0411 1.4-0.0251 1.4-0.0251 2.83-0.0507 1.23-0.0188 1.23-0.0188 2.48-0.038 12.2-0.821 12.2-0.821 15.8-0.464z" fill="#CD5B1D"/>
<path transform="translate(318,714)" d="m0 0c4.18 0.565 6.83 1.96 10.3 4.31 4.45 2.92 8.85 5.47 13.7 7.69 0.706 0.326 1.41 0.652 2.14 0.988 3.91 1.77 7.85 3.4 11.9 4.95 4.14 1.63 7.88 3.63 11.7 5.85 2.34 1.25 4.67 2.17 7.15 3.09 5.89 2.26 10.9 5.61 16.1 9.12 1.03 0.681 2.06 1.36 3.12 2.06 1.63 1.1 3.26 2.2 4.88 3.3 4.82 3.25 9.71 6.31 14.7 9.24 2.26 1.39 2.26 1.39 4.27 2.99 2.2 1.55 3.95 2.09 6.55 2.72 10.9 3.08 20.6 9.79 29.2 17 3.67 3.09 7.6 5.79 11.5 8.53 1.52 1.07 3.03 2.14 4.55 3.21 2.32 1.63 4.64 3.26 6.97 4.87 5.38 3.88 8.87 8.38 12.5 13.9 0.538 0.713 1.08 1.43 1.63 2.16h2v2c-5.49-0.439-8.58-1.76-13-5-1.32-0.694-2.65-1.38-4-2v-2c-0.926-0.238-0.926-0.238-1.87-0.48-9.15-2.52-16.4-6.93-24.2-12.2-0.585-0.393-1.17-0.785-1.77-1.19-1.43-0.988-2.8-2.05-4.16-3.12v-2h-2c-1.05-1.14-1.05-1.14-2.12-2.31-2.89-2.7-5.08-3.5-8.73-4.79-3.55-1.48-6.47-3.71-9.52-6.02-4.15-3.19-4.15-3.19-8.62-5.88v-2c-0.908-0.268-1.82-0.536-2.75-0.812-3.04-1.11-4.74-2.23-7.25-4.19-1.98-1.03-3.98-2.04-6-3v-2c-0.859-0.255-1.72-0.51-2.6-0.773-3.56-1.29-6.52-2.91-9.77-4.85-9.17-5.36-18.6-10.6-28.6-14.3-4.81-1.83-9.32-4.17-13.9-6.56-0.73-0.38-1.46-0.76-2.21-1.15-4-2.13-7.49-4.41-11-7.35-0.825-0.495-1.65-0.99-2.5-1.5-2.81-1.69-5.17-3.17-7.5-5.5-0.812-3.75-0.812-3.75-1-7z" fill="#CC5A1C"/>
<path transform="translate(1347,849)" d="m0 0h-2v2c-1.04 0.295-1.04 0.295-2.09 0.595-3.16 0.901-6.31 1.81-9.47 2.72-1.63 0.463-1.63 0.463-3.29 0.936-5.58 1.61-10.9 3.34-16.1 5.75-10.1 4.26-20.1 7.8-30.8 10.2-3.29 0.674-3.29 0.674-6.16 2.82-2.21 0.523-4.45 0.97-6.69 1.38-14.5 2.78-27.7 6.64-41.3 12.6-0.92 0.396-1.84 0.791-2.79 1.2-3.49 1.52-6.86 3.14-10.2 4.93-4.12 2.09-8.4 3.41-13 3.88-1.48-0.495-1.48-0.495-3-1-0.928 0.0619-1.86 0.124-2.81 0.188-4.12-0.243-6.02-1.6-9.19-4.19-1.38-2.25-1.38-2.25-2-4 2.55-3.2 4.71-3.51 8.69-4 4.4-0.638 8.17-1.53 12.3-3.21 2.46-0.941 4.94-1.61 7.49-2.29 9.84-2.61 19.6-5.89 28.9-9.98 3.61-1.51 7.17-2.67 10.9-3.77 0.705-0.205 1.41-0.409 2.14-0.62 9.22-2.65 18.5-5.11 27.8-7.58 7.43-1.92 7.43-1.92 14.7-4.26 6.68-2.42 13.4-3.48 20.4-4.48 1.73-0.266 1.73-0.266 3.5-0.537 18.9-2.76 18.9-2.76 24.1 0.725z" fill="#CD5B1D"/>
<path transform="translate(707,582)" d="m0 0c6.85 6.28 9.27 11.9 10.6 21 0.99 7.22 0.99 7.22 3.43 14 0.0446 1.52 0.039 3.04 0 4.56-0.0379 1.48-0.0463 2.96 0 4.44l1 1c-0.018 1.15-0.0361 2.3-0.0547 3.49-0.0573 4.76 0.839 9.09 1.93 13.7 0.261 1.17 0.261 1.17 0.527 2.37 0.706 3.08 1.42 6 2.61 8.94 1.46 3.71 2.14 7.54 2.93 11.4 0.346 1.7 0.692 3.4 1.04 5.11 0.17 0.838 0.341 1.68 0.517 2.54 0.458 2.19 0.951 4.36 1.47 6.53 0.281 1.2 0.562 2.4 0.852 3.64 0.254 1.05 0.508 2.09 0.77 3.17 0.87 6.41-0.92 11.4-3.58 17.1-2.81 0.312-2.81 0.312-6 0-2.99-3.53-3.75-7.62-5-12-0.586-1.74-0.586-1.74-1.18-3.52-4.07-12.1-6.17-24.2-7.34-36.9-0.0823-0.898-0.165-1.8-0.249-2.72-0.15-1.72-0.287-3.44-0.41-5.17-0.303-3.66-0.61-6.25-2.29-9.57-2.22-4.48-2.54-8.98-3.1-13.9-0.815-6.84-1.86-13.5-3.44-20.2-1.27-6.34-1.2-10.3 2-16 1.69-1.94 1.69-1.94 3-3z" fill="#CD5B1D"/>
<path transform="translate(778,585)" d="m0 0h3c3.06 6.07 3.87 11.8 4.62 18.6 0.241 2.02 0.484 4.04 0.727 6.07 0.11 0.945 0.22 1.89 0.333 2.86 0.242 1.92 0.558 3.83 0.906 5.74 0.522 3.52 0.432 6.97 0.348 10.5-0.0615 5.34 0.277 10.2 1.48 15.4 2.24 11 2.84 22 2.33 33.2-0.0576 1.32-0.0576 1.32-0.116 2.66-0.273 4.61-0.678 8.78-2.63 13-2.79 1.28-4.93 2-8 2v2c-1.88-0.25-1.88-0.25-4-1-2.38-3.48-2.36-6.94-2.56-11.1-0.242-5.06-0.242-5.06-1.44-9.94-1.25-8.8-1.1-17.8-1.12-26.6-0.00459-1.16-0.00918-2.33-0.0139-3.52 0.00201-1.1 0.00403-2.2 0.0061-3.33 0.00113-0.991 0.00226-1.98 0.00342-3 0.129-2.52 0.129-2.52 1.13-5.52-0.33-0.33-0.66-0.66-1-1-0.1-2.99-0.139-5.95-0.125-8.94-0.00387-0.837-0.00773-1.67-0.0117-2.54 0.00129-0.801 0.00258-1.6 0.00391-2.43 0.00113-0.737 0.00226-1.47 0.00342-2.23 0.129-1.86 0.129-1.86 1.13-3.86 0.196-1.53 0.344-3.07 0.465-4.61 0.078-0.918 0.156-1.84 0.236-2.78 0.157-1.93 0.31-3.86 0.461-5.8 0.937-10.9 0.937-10.9 3.84-13.8zm-5 43 1 4zm1 45 1 2z" fill="#CD5B1D"/>
<path transform="translate(303 861)" d="m0 0c0.991 0.067 1.98 0.134 3 0.203 2.81 0.448 4.97 1.04 7.61 2 5.42 1.89 10.8 2.41 16.5 2.98 10.9 1.24 20.9 3.08 30.9 7.62 7.37 3.16 15.7 3.64 23.6 4.61 1.79 0.325 1.79 0.325 2.79 1.33 1.47 0.25 2.94 0.444 4.42 0.613 1.38 0.167 1.38 0.167 2.78 0.337 0.986 0.119 1.97 0.239 2.99 0.362 28.9 3.74 28.9 3.74 37.8 12.7-0.167 2.59-0.812 3.78-2.5 5.75-4.33 2.16-8.89 1.95-13.5 0.711-1.43-0.498-2.85-1.01-4.27-1.54-3.47-1.18-7.02-2.01-10.6-2.86-5.79-1.39-11.3-3.06-16.9-5.23-3.44-1.28-6.73-1.94-10.4-2.27-4.92-0.516-9.7-1.47-14.5-2.5-5.91-1.23-11.7-2.3-17.8-3-5.7-0.759-10.4-2.43-15.7-4.63-5.79-2.28-11.9-3.71-17.9-5.29-4.35-1.14-8.7-2.31-13-3.64-0.715-0.218-1.43-0.435-2.17-0.66-1.79-0.848-1.79-0.848-3.79-3.85 3.58-3.74 5.39-4.15 10.6-3.75z" fill="#CD5B1D"/>
<path transform="translate(963,591)" d="m0 0c3.85 1.57 6.42 3.75 9 7 0.284 4.26-1.24 6.46-3.81 9.62-3.32 4.13-4.75 8.3-6.23 13.3-1.09 3.46-2.51 6.7-3.96 10-1.03 2.61-2.02 5.24-3 7.88-0.395 1.06-0.395 1.06-0.798 2.14-1.84 4.96-3.61 9.94-5.2 15-0.294 0.9-0.588 1.8-0.891 2.73-2.43 7.6-4.42 15.3-6.27 23-3.72 15.4-3.72 15.4-8.28 21.6-0.576 0.801-1.15 1.6-1.75 2.43-1.81 2.25-3.73 4.26-5.82 6.26-2.69-0.985-3.8-1.65-5.24-4.17-1-3.71-0.254-5.75 0.926-9.39 1.4-4.48 2.72-8.93 3.81-13.5 2.91-11.8 6.71-23.1 11.9-34.1 2.39-5.18 4.05-10.4 5.69-15.9 2.13-7.02 4.86-13.7 8.01-20.4 1.88-3.99 3.11-7.49 3.8-11.9 0.797-4.62 2.33-6.77 6.06-9.75l2-2z" fill="#CD5B1D"/>
<path transform="translate(313,931)" d="m0 0c2.35 0.277 2.35 0.277 5.06 0.938 1.64 0.392 3.28 0.756 4.94 1.06 0.33-0.33 0.66-0.66 1-1 14-1.69 28.3-1.25 42.4-1.3 3.43-0.0112 6.87-0.0458 10.3-0.0852 3.32-0.0325 6.64-0.0369 9.95-0.0454 1.83-0.0263 1.83-0.0263 3.7-0.0531 7.03 0.0179 11.7 0.612 17.6 4.48 2.66 3.28 4.1 5.93 5 10-19.4 3.34-19.4 3.34-27.1 3.04-2.02-0.107-2.02-0.107-4.55 0.527-4.09 0.774-8.05-0.276-12.1-1.19-3-0.346-5.39-0.241-8.38 0.0625-16.2 1.64-32.6-0.412-47.9-6.44-2-2-2-2-2.25-5 0.25-3 0.25-3 2.25-5zm-1 2v5h1v-5h-1zm13 0v1h5v-1h-5zm47 0v1h5v-1h-5z" fill="#CC5A1C"/>
<path transform="translate(1302 898)" d="m0 0c3.19 0.312 3.19 0.312 5.12 2.31 0.351 0.66 0.701 1.32 1.06 2-0.598 0.557-1.2 1.11-1.81 1.69-2.3 2.15-2.3 2.15-3.24 4.83-3.02 3.84-6.66 3.79-11.3 4.48-9.35 1.61-17.3 4.23-26 8.07-5.28 2.25-10.4 3.61-16 4.81-6.43 1.38-11.6 3.41-17.3 6.8-6.26 3.66-13.2 4.07-20.3 3.33-2.33-1.02-2.33-1.02-4-2 0.125-1.81 0.125-1.81 1-4 2.44-1.44 2.44-1.44 6-3 1.5-0.742 3-1.49 4.5-2.25l8.98-4.49c0.898-0.449 0.898-0.449 1.81-0.908 1.23-0.613 2.45-1.22 3.68-1.83 2.39-1.19 4.77-2.38 7.1-3.68 5.26-2.92 10.9-4.42 16.7-6 3.43-0.951 6.54-1.96 9.8-3.42 3.79-1.55 7.08-2.05 11.1-2.48 4.28-0.452 7.55-0.864 11.3-2.94 3.95-0.648 7.82-0.986 11.8-1.31z" fill="#CD5B1D"/>
<path transform="translate(392,1022)" d="m0 0c3.28 0.539 6.56 0.889 9.87 1.24 3.54 0.858 4.84 1.99 7.13 4.76-14.1 7.73-33.1 9.84-48.8 7.02-2.43-0.14-2.43-0.14-5.41 0.965-3.92 1.04-7.1 1.23-11.1 1.17-0.669-0.0052-1.34-0.0104-2.03-0.0158-2.11-0.0176-4.22-0.0488-6.34-0.0819-2.12-0.0277-4.25-0.0524-6.37-0.0712-1.92-0.0177-3.84-0.0452-5.75-0.0731-3.07-0.0423-3.07-0.0423-5.47 0.678-0.566 0.133-1.13 0.267-1.71 0.404-2.36-1.51-2.36-1.51-4.75-3.69-0.799-0.705-1.6-1.41-2.42-2.14-1.83-2.18-1.83-2.18-1.83-6.18 7.71-1.23 15.5-1.8 23.3-2.25 0.723-0.0419 1.45-0.0838 2.19-0.127 1.43-0.081 2.86-0.158 4.29-0.23 3.75-0.166 3.75-0.166 7.26-1.39 2.84-0.31 5.67-0.569 8.52-0.789 0.849-0.0675 1.7-0.135 2.57-0.205 1.8-0.142 3.6-0.281 5.4-0.418 2.74-0.211 5.48-0.434 8.22-0.658 1.75-0.136 3.5-0.272 5.25-0.406 0.816-0.0676 1.63-0.135 2.47-0.205 5.79-0.426 10.6-0.651 15.6 2.68z" fill="#CD5B1D"/>
<path transform="translate(1091,626)" d="m0 0c-0.49 4.66-2.34 7-5.38 10.5-2.92 3.39-5.33 6.67-7.62 10.5-1.96 2.3-4 4.5-6.06 6.72-1.97 2.33-3.44 4.63-4.94 7.28-0.833 1.42-0.833 1.42-1.68 2.87-0.579 0.993-1.16 1.99-1.75 3.01-0.614 1.05-1.23 2.1-1.86 3.19-1.31 2.26-2.61 4.53-3.89 6.81-2.49 4.3-5.09 8.27-8.31 12.1-2.15 2.64-3.83 5.22-5.46 8.2-1.52 2.73-3.21 5.34-4.89 7.97-1.16 1.92-2.17 3.87-3.15 5.89h-2c-0.106 0.714-0.211 1.43-0.32 2.16-0.752 3.14-1.95 5.42-3.55 8.21-2.33 4.15-4.32 8.23-6.12 12.6-0.985 2.01-1.98 4.01-3 6-7.1-0.67-7.1-0.67-10-4 1.85-6.07 4.1-11.6 7.12-17.2 0.59-1.1 0.59-1.1 1.19-2.22 7.62-14 16.7-27.4 26.8-39.7 3.79-4.65 6.84-9.62 9.93-14.8 4.16-6.8 8.79-13.1 13.9-19.2 0.33-0.66 0.66-1.32 1-2h2c0.227-0.727 0.454-1.45 0.688-2.2 1.59-3.38 3.5-5.11 6.31-7.55 0.887-0.779 1.77-1.56 2.69-2.36 3.29-2.69 3.88-2.89 8.31-2.89z" fill="#CD5B1D"/>
<path transform="translate(380,817)" d="m0 0c3.81 0.324 5.78 0.856 9 3 1.49 0.276 2.99 0.499 4.5 0.688 4.37 0.783 7.18 2.22 10.8 4.75 5.09 3.49 9.63 4.73 15.6 5.89 3.52 0.769 6.45 2.02 9.68 3.56 13.5 6.55 13.5 6.55 28 9.02 0.78 0.0271 1.56 0.0541 2.36 0.082 3.01 3.25 4.26 5.88 4.38 10.2-0.375 3.75-0.375 3.75-2.38 5.75-12.5 0.739-23.5-4.24-34.1-10.5-5.88-3.07-12.1-5.28-18.4-7.46-0.92-0.321-1.84-0.642-2.79-0.973-1.87-0.649-3.74-1.29-5.62-1.92-8.85-3.12-16.8-7.28-22.1-15.2-0.938-2.75-0.938-2.75-1-5 0.66-0.66 1.32-1.32 2-2z" fill="#CC5A1C"/>
<path transform="translate(1145 720)" d="m0 0c2.94 1.66 3.65 4.01 4.88 7.06v3c-2.05 1.77-4.06 3.36-6.25 4.94-3.87 2.84-7.35 5.66-10.8 9.06-0.866 0.33-1.73 0.66-2.62 1-2.99 1.26-2.96 2.16-4.38 5-6.16 7.49-13.1 15.3-21 21h-2c-0.227 0.598-0.454 1.2-0.688 1.81-1.69 2.82-3.46 3.53-6.31 5.19-1.14 0.758-2.28 1.52-3.41 2.3-0.597 0.401-1.19 0.802-1.81 1.21-1.24 0.832-2.47 1.67-3.7 2.52-4.51 2.99-4.51 2.99-7.39 2.86-1.69-0.891-1.69-0.891-3.69-2.89 0.0625-2.38 0.0625-2.38 1-5 2.21-2.09 4.18-3.65 6.98-4.84 2.53-1.45 3.45-2.99 4.95-5.47 4.69-7.35 11-12.5 18.1-17.6 4.81-3.58 8.6-7.66 11.6-12.9 1.76-2.75 3.6-3.69 6.44-5.25 0.669-0.677 0.669-0.677 1.35-1.37 2.01-1.99 4.19-3.52 6.52-5.13 0.843-0.588 1.69-1.18 2.55-1.78 7.03-4.7 7.03-4.7 9.7-4.78z" fill="#CD5B1D"/>
<path transform="translate(919,616)" d="m0 0c2.31 1.06 2.31 1.06 4 2 0.125 5.75 0.125 5.75-1 8h-2c-0.117 0.84-0.235 1.68-0.355 2.55-0.693 3.71-1.75 7.12-2.96 10.7-0.222 0.66-0.444 1.32-0.673 2-1.26 3.7-2.63 7.33-4.14 10.9-4.4 10.8-5.61 21.9-6.6 33.4-0.744 7.44-1.77 14.9-7.27 20.4-2.16 0.195-2.16 0.195-4.62 0.125-0.817-0.018-1.63-0.0361-2.48-0.0547-0.626-0.0232-1.25-0.0464-1.9-0.0703-1.04-5.2-0.696-8.06 1-13 0.538-2.65 1.04-5.28 1.5-7.94 1.36-7.87 3.54-15.4 6.06-22.9 0.221-0.675 0.442-1.35 0.67-2.05 1.65-4.96 1.65-4.96 2.77-6.08 0.661-3.49 1.24-6.98 1.81-10.5 0.729-4.35 1.78-8.33 3.19-12.5 0.152-1.5 0.261-3 0.312-4.5 0.45-4.93 2.18-7.08 5.69-10.5 2.72-1.36 4.09-0.761 7 0z" fill="#CD5B1D"/>
<path transform="translate(633,624)" d="m0 0c3.29 2.93 5.42 6.09 7.66 9.82 1.31 2.12 2.71 4.14 4.15 6.18 3.99 5.96 7.04 12.4 10.1 18.8 1.04 2.14 2.1 4.28 3.16 6.41 3.67 7.47 6.69 14.8 8.94 22.8 1.73 5.9 4.38 11.2 7.44 16.5 2.51 4.57 2.71 7.44 1.5 12.5-0.99 0.33-1.98 0.66-3 1-4.01-3.68-6.61-7.35-9.19-12.1-2.77-5.02-2.77-5.02-5.81-9.88-0.319-1.41-0.586-2.83-0.812-4.25-0.82-3.94-2.17-6.42-4.7-9.61-1.99-2.87-3.47-5.95-4.99-9.08-1.9-3.91-3.81-7.73-6.19-11.4-5.1-7.87-8.02-17-11.3-25.7-0.487-1.29-0.487-1.29-0.984-2.61-0.675-1.8-1.35-3.59-2.02-5.39 1.98-1.32 3.96-2.64 6-4z" fill="#CD5B1D"/>
<path transform="translate(1e3 658)" d="m0 0 2 2c-0.631 8.64-3.67 18.5-8.19 26-1.96 2.91-1.96 2.91-2.62 6.25-1.75 5.53-4.98 9.95-8.19 14.8-2.53 3.87-4.9 7.55-6.56 11.9-1.55 3.38-2.15 3.81-5.44 5.12-0.33 0.99-0.66 1.98-1 3-2.06 0.688-2.06 0.688-4 1-0.33-0.99-0.66-1.98-1-3h-2c0.995-11.9 3.8-21.7 10-32 2.84-4.74 2.84-4.74 4.89-9.87 1.15-3.25 2.6-5.62 4.54-8.45 2.35-3.55 4.04-6.65 5.19-10.8 1.11-3.76 1.11-3.76 3.69-5.5 3-0.488 5.66-0.707 8.69-0.438z" fill="#CD5B1D"/>
<path transform="translate(1085,688)" d="m0 0c-0.411 5.96-1.25 9.17-5 14-0.866 1.17-0.866 1.17-1.75 2.37-3.57 4.76-3.57 4.76-5.25 6.63h-2c-0.159 0.568-0.317 1.14-0.48 1.72-1.2 3.99-2.36 7.36-4.96 10.7-2.8 3.61-4.01 7.42-5.46 11.7-1.53 4.04-3.58 7.7-5.71 11.5-1.13 2-2.2 4.01-3.2 6.08-1.19 2.38-1.19 2.38-2.19 3.38-7.46 0.361-7.46 0.361-11-2 1.42-10.5 6.42-22.5 14-30 1.13-1.52 2.24-3.06 3.31-4.62 0.617-0.891 1.23-1.78 1.87-2.7 1.6-2.35 3.15-4.73 4.69-7.11 14.4-21.6 14.4-21.6 23.1-21.6z" fill="#CD5B1D"/>
<path transform="translate(455,728)" d="m0 0c7.48 1.43 13.8 7.87 18 14v2h2c0.577 0.742 1.15 1.49 1.75 2.25 2.49 3.04 4.96 4.62 8.25 6.75 4.28 3.41 8.14 7.14 12 11 1.1 0.968 2.2 1.93 3.31 2.88 0.592 0.512 1.18 1.02 1.79 1.55 1.28 1.06 2.6 2.08 3.95 3.05 6.38 4.87 8.93 10.8 10.9 18.5 0.125 2.9 0.125 2.9 0 5-3.33-0.597-5.21-1.72-7.75-3.94-0.614-0.525-1.23-1.05-1.86-1.59-1.39-1.47-1.39-1.47-1.39-3.47-0.99-0.33-1.98-0.66-3-1v-2c-0.561-0.235-1.12-0.469-1.7-0.711-6.17-3.46-11.1-9.79-15.6-15.2-4.14-4.85-8.89-9.02-13.6-13.3-2.78-2.54-5.52-5.07-8.09-7.83v-2c-0.581-0.262-1.16-0.523-1.76-0.793-3.74-2.02-6.7-4.81-9.24-8.21 0-3.02 0.679-4.36 2-7z" fill="#CC5A1C"/>
<path transform="translate(1225,807)" d="m0 0c-3.29 2.91-5.6 4.5-10 5-0.33 0.99-0.66 1.98-1 3-7.08 6.63-15.2 12.6-23.6 17.5-2.23 1.36-4.22 2.81-6.26 4.43-3.32 2.54-6.66 4.41-10.4 6.18-2.12 1.06-3.89 2.44-5.76 3.88h-2c-0.33 0.99-0.66 1.98-1 3-3.65 1.96-6.71 2.22-10.8 2.12-0.976-0.018-1.95-0.0361-2.96-0.0547-1.1-0.0348-1.1-0.0348-2.23-0.0703 0.32-2.4 0.32-2.4 1-5 2.88-1.62 2.88-1.62 6-3 1-0.997 2-2 3-3 2.08-1.6 4.18-3.16 6.31-4.69 0.612-0.438 1.22-0.877 1.86-1.33 5.36-3.78 10.9-7.04 16.7-10.2 5.74-3.23 5.74-3.23 10.8-7.41 1.63-1.63 3.32-2.35 5.38-3.38 0.422-0.459 0.843-0.918 1.28-1.39 6.54-6.11 15.3-7.49 23.7-5.61z" fill="#CC5A1C"/>
<path transform="translate(551 685)" d="m0 0c8.37 1.11 13.2 8.43 18 14.7 1.45 1.92 2.88 3.85 4.3 5.79 0.519 0.703 1.04 1.41 1.57 2.13 1.01 1.38 2.01 2.76 3.01 4.15 3.35 4.58 7.01 8.11 11.4 11.7 2.82 2.53 3.91 3.97 4.24 7.76 0.0106 2.76-0.0646 5.49-0.238 8.24-7.51-1.58-12.5-6.18-17.3-12-1.63-1.93-3.35-3.57-5.21-5.27-3.08-2.99-4.99-6.18-7.06-9.94-2.66-4.8-4.81-6.86-9.44-9.81-3.37-4.68-5.96-9.61-8-15 2-2 2-2 4.69-2.44z" fill="#CD5B1D"/>
<path transform="translate(812,616)" d="m0 0c0.66 0.33 1.32 0.66 2 1-0.0116 0.641-0.0232 1.28-0.0352 1.94-0.0405 3.89-0.0353 7.58 0.535 11.4 0.588 4.26 0.528 8.37 0.438 12.7 0.0651 3.09 0.547 5.92 1.06 8.96 0.17 2.58 0.317 5.16 0.438 7.75 0.244 4.62 0.605 9.1 1.62 13.6 1.43 6.5 2.33 12.8-1.06 18.8-0.66 0.949-1.32 1.9-2 2.88-1.88-0.625-1.88-0.625-4-2-1.88-4.04-2.26-6.73-1-11h-2c-1.92-10.3-2.41-20.3-2.62-30.8-0.0383-1.57-0.0774-3.14-0.117-4.71-0.258-10.4-0.258-10.4-0.258-12.5-0.0464-0.852-0.0928-1.7-0.141-2.58-0.0361-1.07-0.0722-2.13-0.109-3.23-0.0464-1.06-0.0928-2.12-0.141-3.21 0.484-3.69 1.53-4.69 4.39-6.98 0.99-0.66 1.98-1.32 3-2zm-5 34 1 3z" fill="#CD5B1D"/>
<path transform="translate(1286 947)" d="m0 0c0.598 0.577 1.2 1.15 1.81 1.75v4c-9.47 1.89-18.9 3.45-28.5 4.47-3.4 0.509-6.27 1.43-9.52 2.53-2.9 0.61-5.82 1.09-8.75 1.56-5.28 0.706-5.28 0.706-10.2 2.44-2 0.04-4 0.0435-6 0-0.33-0.99-0.66-1.98-1-3-2-1.21-2-1.21-4-2v-3c2.13-0.725 4.26-1.44 6.39-2.14 1.63-0.54 3.25-1.1 4.87-1.7 5.96-2.05 11.8-2.61 18-2.79 4.27-0.151 7.7-0.95 11.7-2.38 7.86-1.25 17.7-2.7 25.2 0.25z" fill="#CD5B1D"/>
<path transform="translate(752,906)" d="m0 0 2 2c-0.375 2.62-0.375 2.62-1 5-0.568 0.121-1.14 0.242-1.72 0.367-7.98 1.73-15.7 4.08-23.4 6.68-3.28 1.08-6.56 2.05-9.89 2.95 1.76-5.15 4.02-8.76 8.69-11.7 3.34-1.32 6.5-2.14 10-2.84 2.21-0.454 4.37-1.01 6.55-1.6 3.13-0.731 5.57-1.25 8.75-0.875z" fill="#CD5B1D"/>
<path transform="translate(736,940)" d="m0 0h4c-1 3-1 3-2.96 4.17-0.797 0.336-1.59 0.673-2.41 1.02-1.19 0.516-1.19 0.516-2.4 1.04-2.23 0.77-2.23 0.77-5.23 0.77-0.33 1.32-0.66 2.64-1 4h-2c-0.247 0.619-0.495 1.24-0.75 1.88-1.46 2.48-2.63 3.08-5.25 4.12 0.959-1.36 0.959-1.36 1.94-2.75 2.13-2.93 2.13-2.93 2.5-5.38 0.909-3.03 3.01-4.15 5.56-5.88 2.19-0.812 2.19-0.812 4-1 0.66 0.33 1.32 0.66 2 1 0.33-0.66 0.66-1.32 1-2l1-1zm-13 8 1 2z" fill="#C7581C"/>
<path transform="translate(765,956)" d="m0 0v2c-1.65-0.33-3.3-0.66-5-1v3c-2.64 0.99-5.28 1.98-8 3v-2c0.66-0.33 1.32-0.66 2-1 0.289-0.639 0.577-1.28 0.875-1.94 1.12-2.06 1.12-2.06 2.94-3.44 2.97-0.849 4.49 0.0241 7.19 1.38z" fill="#A64A18"/>
<path transform="translate(815,962)" d="m0 0c0.99 0.33 1.98 0.66 3 1 0.66 3.63 1.32 7.26 2 11-0.66-1.32-1.32-2.64-2-4-0.99-0.33-1.98-0.66-3-1-0.381-1.99-0.713-3.99-1-6l1-1z" fill="#C0551B"/>
<path transform="translate(763,887)" d="m0 0v4c-0.928-0.165-1.86-0.33-2.81-0.5-3.14-0.577-3.14-0.577-6.19-0.5l-2-2c4.12-1.63 6.71-2.26 11-1z" fill="#A24817"/>
<path transform="translate(759,879)" d="m0 0c6.4 0.466 11.3 2.15 17 5-0.33 0.66-0.66 1.32-1 2-2.48-0.783-4.96-1.58-7.44-2.38-0.707-0.222-1.41-0.443-2.14-0.672-1.83-0.594-3.63-1.27-5.42-1.95-0.33-0.66-0.66-1.32-1-2z" fill="#090504"/>
<path transform="translate(805,967)" d="m0 0c0.99 0.33 1.98 0.66 3 1v2c0.322 1.34 0.658 2.67 1 4 0.341 1.67 0.676 3.33 1 5-0.33-0.66-0.66-1.32-1-2-0.99-0.33-1.98-0.66-3-1-0.144-0.763-0.289-1.53-0.438-2.31-0.526-2.77-0.526-2.77-1.56-5.69l1-1z" fill="#6E3111"/>
<path transform="translate(744,987)" d="m0 0h2c-1.29 2.88-2.66 4.87-5 7-0.66-0.33-1.32-0.66-2-1 1.62-2.04 3.29-4.04 5-6z" fill="#0A0504"/>
<path transform="translate(815,883)" d="m0 0h3v5c-1.32-0.66-2.64-1.32-4-2 0.33-0.99 0.66-1.98 1-3z" fill="#CD5B1D"/>
<path transform="translate(751,976)" d="m0 0c0.66 0.33 1.32 0.66 2 1-1.49 3.47-1.49 3.47-3 7-0.66-0.66-1.32-1.32-2-2l3-6z" fill="#8C3E15"/>
<path transform="translate(784,967)" d="m0 0c0 3 0 3-1.5 4.69-0.495 0.433-0.99 0.866-1.5 1.31v-5c0.99-0.33 1.98-0.66 3-1z" fill="#5A280E"/>
<path transform="translate(1246 1e3)" d="m0 0h11v1h-11v-1z" fill="#0B0605"/>
<path transform="translate(771,968)" d="m0 0c0.99 0.66 1.98 1.32 3 2h-2c-0.66 1.32-1.32 2.64-2 4-0.33-0.66-0.66-1.32-1-2 0.938-2.12 0.938-2.12 2-4z" fill="#1C0D07"/>
<path transform="translate(833,940)" d="m0 0c2.88 1.29 4.87 2.66 7 5-3.65-1.25-4.78-1.67-7-5z" fill="#984316"/>
<path transform="translate(855,925)" d="m0 0h7v2c-2.31-0.33-4.62-0.66-7-1v-1z" fill="#0B0605"/>
<path transform="translate(823,868)" d="m0 0c0.99 0.33 1.98 0.66 3 1-1.32 1.32-2.64 2.64-4 4 0.33-1.65 0.66-3.3 1-5z" fill="#0B0605"/>
<path transform="translate(788,621)" d="m0 0h1v10h-1v-10z" fill="#0B0605"/>
<path transform="translate(842,957)" d="m0 0c1.65 1.32 3.3 2.64 5 4h-3c-0.66-1.32-1.32-2.64-2-4z" fill="#0B0605"/>
<path transform="translate(756,972)" d="m0 0c0.66 0.33 1.32 0.66 2 1-2.48 1.49-2.48 1.49-5 3v-2c0.99-0.66 1.98-1.32 3-2z" fill="#4F230C"/>
<path transform="translate(836,919)" d="m0 0 3 3h-4c0.33-0.99 0.66-1.98 1-3z" fill="#0B0605"/>
<path transform="translate(748,897)" d="m0 0h8v1h-8v-1z" fill="#0B0605"/>
<path transform="translate(745,887)" d="m0 0h4v2h-4v-2z" fill="#0B0605"/>
<path transform="translate(788,872)" d="m0 0h2c0.33 1.65 0.66 3.3 1 5-1.5-1.38-1.5-1.38-3-3v-2z" fill="#0B0605"/>
<path transform="translate(798,731)" d="m0 0h8v1h-8v-1z" fill="#CD5B1D"/>
<path transform="translate(799,986)" d="m0 0c0.33 0.99 0.66 1.98 1 3-0.66 0.99-1.32 1.98-2 3 0.33-1.98 0.66-3.96 1-6z" fill="#070404"/>
<path transform="translate(789,977)" d="m0 0h1v5h-2c0.33-1.65 0.66-3.3 1-5z" fill="#090504"/>
<path transform="translate(820,975)" d="m0 0 3 3h-3v-3z" fill="#0B0605"/>
<path transform="translate(712,959)" d="m0 0v3c-0.99-0.33-1.98-0.66-3-1 0.99-0.66 1.98-1.32 3-2z" fill="#CD5B1D"/>
<path transform="translate(752,934)" d="m0 0h3v2h-3v-2z" fill="#0B0605"/>
<path transform="translate(764,888)" d="m0 0 3 3h-3v-3z" fill="#0B0605"/>
<path transform="translate(776,986)" d="m0 0c0.33 0.99 0.66 1.98 1 3h-2c0.33-0.99 0.66-1.98 1-3z" fill="#080404"/>
<path transform="translate(822,980)" d="m0 0 2 1c-0.33 0.99-0.66 1.98-1 3-0.33-1.32-0.66-2.64-1-4z" fill="#A64A18"/>
<path transform="translate(798,969)" d="m0 0h2c-0.33 1.32-0.66 2.64-1 4-0.33-1.32-0.66-2.64-1-4z" fill="#0B0605"/>
<path transform="translate(384,948)" d="m0 0h5v1h-5v-1z" fill="#0B0605"/>
<path transform="translate(830,937)" d="m0 0c0.99 0.33 1.98 0.66 3 1-0.33 0.66-0.66 1.32-1 2-0.66-0.99-1.32-1.98-2-3z" fill="#58280E"/>
<path transform="translate(830,881)" d="m0 0h2c-0.33 0.99-0.66 1.98-1 3-0.33-0.99-0.66-1.98-1-3z" fill="#080404"/>
<path transform="translate(797,876)" d="m0 0h2c-0.33 0.99-0.66 1.98-1 3-0.33-0.99-0.66-1.98-1-3z" fill="#080404"/>
<path transform="translate(787,868)" d="m0 0h2c-0.33 0.99-0.66 1.98-1 3-0.33-0.99-0.66-1.98-1-3z" fill="#58280E"/>
<path transform="translate(795,862)" d="m0 0h2c-0.33 0.99-0.66 1.98-1 3-0.33-0.99-0.66-1.98-1-3z" fill="#0B0605"/>
<path transform="translate(960,626)" d="m0 0c0.33 0.66 0.66 1.32 1 2-0.66 0.66-1.32 1.32-2 2 0.33-1.32 0.66-2.64 1-4z" fill="#0B0605"/>
<path transform="translate(747,984)" d="m0 0c0.33 0.99 0.66 1.98 1 3-0.66-0.33-1.32-0.66-2-1 0.33-0.66 0.66-1.32 1-2z" fill="#9C4517"/>
<path transform="translate(759,970)" d="m0 0c0.66 0.33 1.32 0.66 2 1h-3l1-1z" fill="#050303"/>
<path transform="translate(791,969)" d="m0 0 1 4z" fill="#0B0605"/>
<path transform="translate(775,964)" d="m0 0c0.33 0.99 0.66 1.98 1 3-0.66-0.33-1.32-0.66-2-1 0.33-0.66 0.66-1.32 1-2z" fill="#CD5B1D"/>
<path transform="translate(824,957)" d="m0 0v3z" fill="#080404"/>
<path transform="translate(851,951)" d="m0 0h3c-0.33 0.66-0.66 1.32-1 2l-2-2z" fill="#080404"/>
<path transform="translate(746,935)" d="m0 0c0.33 0.66 0.66 1.32 1 2-0.99-0.33-1.98-0.66-3-1 0.66-0.33 1.32-0.66 2-1z" fill="#080404"/>
<path transform="translate(823,890)" d="m0 0h2v2h-2v-2z" fill="#0B0605"/>
<path transform="translate(797,869)" d="m0 0 2 2c-0.99-0.33-1.98-0.66-3-1l1-1z" fill="#080404"/>
<path transform="translate(871,594)" d="m0 0 1 4z" fill="#0B0605"/>
<path transform="translate(736,996)" d="m0 0 2 1-2 1v-2z" fill="#8C3E15"/>
<path transform="translate(772,966)" d="m0 0 2 2h-2v-2z" fill="#8C3E15"/>
<path transform="translate(716,956)" d="m0 0 2 2h-2v-2z" fill="#070404"/>
<path transform="translate(830,946)" d="m0 0 2 2h-2v-2z" fill="#0B0605"/>
<path transform="translate(757,947)" d="m0 0h2c-0.33 0.66-0.66 1.32-1 2-0.33-0.66-0.66-1.32-1-2z" fill="#CD5B1D"/>
<path transform="translate(660,910)" d="m0 0c3 1 3 1 3 1z" fill="#CD5B1D"/>
<path transform="translate(833,903)" d="m0 0 2 1-2 1v-2z" fill="#0B0605"/>
<path transform="translate(766,870)" d="m0 0 2 2h-2v-2z" fill="#070404"/>
<path transform="translate(320,1037)" d="m0 0 2 1z" fill="#0B0605"/>
<path transform="translate(298,983)" d="m0 0 2 1z" fill="#0B0605"/>
<path transform="translate(411,974)" d="m0 0 2 1z" fill="#0B0605"/>
<path transform="translate(774,968)" d="m0 0 2 1z" fill="#050303"/>
<path transform="translate(753,963)" d="m0 0 2 1z" fill="#050303"/>
<path transform="translate(750,963)" d="m0 0 2 1z" fill="#CD5B1D"/>
<path transform="translate(816,961)" d="m0 0 2 1z" fill="#0B0605"/>
<path transform="translate(755,948)" d="m0 0 2 1z" fill="#0B0605"/>
<path transform="translate(749,935)" d="m0 0 2 1z" fill="#0B0605"/>
<path transform="translate(750,933)" d="m0 0 2 1z" fill="#0B0605"/>
<path transform="translate(709,929)" d="m0 0 2 1z" fill="#0B0605"/>
<path transform="translate(711,928)" d="m0 0 2 1z" fill="#050303"/>
<path transform="translate(852,924)" d="m0 0 2 1z" fill="#0B0605"/>
<path transform="translate(894,920)" d="m0 0 2 1z" fill="#000002"/>
<path transform="translate(833,919)" d="m0 0 2 1z" fill="#CD5B1D"/>
<path transform="translate(919,901)" d="m0 0 2 1z" fill="#000002"/>
<path transform="translate(745,897)" d="m0 0 2 1z" fill="#0B0605"/>
<path transform="translate(846,894)" d="m0 0 2 1z" fill="#CD5B1D"/>
<path transform="translate(846,892)" d="m0 0 2 1z" fill="#0B0605"/>
<path transform="translate(675,875)" d="m0 0 2 1z" fill="#0B0605"/>
<path transform="translate(516,796)" d="m0 0 2 1z" fill="#0B0605"/>
<path transform="translate(967,729)" d="m0 0 2 1z" fill="#0B0605"/>
</svg>
